<svg width="165" height="67" viewBox="0 0 165 67" fill="none" xmlns="http://www.w3.org/2000/svg">
<path d="M16.8116 17.8975C16.3264 18.4281 15.9938 18.9088 15.814 19.2888C15.4261 20.6324 14.9149 21.2899 14.2547 21.2865C12.6021 21.7095 11.4828 22.1099 10.9225 22.437C8.7102 23.0602 7.5905 23.5368 7.58904 23.8161L7.58797 24.0192C7.58718 24.1715 7.66295 24.2481 7.81529 24.2489C8.07039 24.0217 8.63057 23.7199 9.4961 23.2928L9.69922 23.2939L9.59487 23.8266L9.59434 23.9281L9.69484 24.1318C11.093 23.809 11.8815 23.5592 12.0346 23.4077L12.2377 23.4088L12.2365 23.6373C10.9386 24.2145 10.2766 24.5665 10.2506 24.6679L10.2489 24.998C10.4252 25.2782 10.5767 25.4313 10.6783 25.4319C11.0869 24.977 11.8763 24.5495 13.021 24.1492L13.2495 24.1504L11.7787 28.6369C11.2649 29.7768 11.0077 30.4102 11.007 30.5372C10.4725 30.7883 10.2177 30.9647 10.2171 31.0662L10.2166 31.1678C10.3689 31.1686 10.6224 31.2461 11.0025 31.4004C10.9251 31.6286 10.8222 31.8819 10.6432 32.1349C8.66127 32.4038 7.44095 32.7021 7.00732 33.0807L7.10781 33.2844C7.33633 33.2856 8.02266 33.1368 9.21747 32.8638C9.21707 32.9399 9.24219 32.9909 9.31836 32.9913L10.207 32.9959L10.2054 33.3006C9.62079 33.4245 9.31517 33.6006 9.31398 33.8291C9.23781 33.8287 9.21255 33.8032 9.21295 33.727C8.24745 33.8489 7.76411 34.0241 7.76291 34.2527L7.8888 34.4564C8.60039 34.3332 9.0832 34.2596 9.31172 34.2608L9.43867 34.2614L9.64126 34.3641C9.64033 34.5418 9.61427 34.6686 9.53744 34.7952L9.63794 34.9988C9.35824 35.0735 9.15392 35.301 8.97433 35.6555L8.97274 35.9602C8.97194 36.1125 9.04771 36.1891 9.20005 36.1899C9.06951 36.8748 8.86453 37.2292 8.63602 37.228C8.37959 37.7091 8.04526 38.5198 7.6329 39.6856L7.63184 39.8888L7.86035 39.89L7.85862 40.22L7.30057 40.1156C7.30003 40.2171 7.19741 40.4197 6.96717 40.7486L7.06767 40.9522C6.99149 40.9518 6.96584 41.0025 6.96544 41.0787L6.96331 41.4849C7.03948 41.4853 7.06501 41.46 7.06541 41.3839L7.29339 41.4866C7.13945 41.7905 7.06221 41.9932 7.06155 42.1202L6.73148 42.1185L6.96212 41.7134L6.96331 41.4849L6.73427 41.5853C6.55281 42.2953 6.424 42.6501 6.29705 42.6494C6.11599 43.2832 5.78326 43.7893 5.2736 44.1421L5.39935 44.3713C5.09427 44.4459 4.52903 45.7124 3.70352 48.1964L3.70245 48.3996C3.70179 48.5265 3.77756 48.6031 3.9299 48.6039L4.26104 48.4025L4.3626 48.403C4.3622 48.4792 4.33615 48.606 4.25931 48.7326C3.59504 49.5162 3.26258 49.9715 3.26191 50.0985C3.26125 50.2254 3.43858 50.3025 3.81943 50.3045C3.8185 50.4822 3.76653 50.7105 3.68903 50.964L3.4859 50.9629C3.4867 50.8106 3.41093 50.734 3.25859 50.7332L3.4887 50.4297L3.48936 50.3028L3.26085 50.3016L2.92958 50.5284L3.03008 50.732C2.7 50.7303 2.36793 51.1094 2.03374 51.8948L2.1341 52.1238C1.98176 52.123 1.5472 52.6794 0.804902 53.8181L0.803174 54.1481C0.802509 54.2751 0.878281 54.3517 1.03062 54.3525L1.13218 54.353C1.28453 54.3538 1.95079 53.1893 3.1565 50.8342L3.35962 50.8353C3.25287 51.825 3.07248 52.3319 2.81858 52.3305C2.81831 52.3813 2.81805 52.4321 2.84317 52.483C2.86816 52.5593 2.89329 52.6102 2.91841 52.6611C2.38109 53.4454 1.89323 54.4839 1.45508 55.7258L1.45229 56.259L1.57804 56.4882C1.75657 56.3367 1.90931 56.2614 2.01087 56.2619C2.55284 54.5889 3.17032 53.0433 3.81265 51.5994L3.6869 51.3702C3.86463 51.3712 4.06975 50.9914 4.35316 50.2057L4.70863 50.2076L4.70637 50.6392C5.21244 50.972 5.46515 51.2018 5.46422 51.3795C5.1816 52.0128 5.02607 52.6214 5.02301 53.2054C5.02235 53.3323 5.09812 53.4089 5.22507 53.4096L5.45358 53.4108C5.68489 52.8788 6.09818 51.5352 6.69345 49.3801C7.28075 48.7484 7.5877 48.3183 7.58889 48.0898C7.58929 48.0137 7.51326 47.9879 7.36091 47.9871C7.36211 47.7586 7.5429 47.1755 7.92841 46.2888L8.15692 46.29C8.15625 46.417 7.97573 46.9493 7.58996 47.8867L7.58943 47.9883C8.15001 47.6103 9.07522 45.4823 10.3905 41.6044L12.6333 35.1415C14.6199 33.9839 15.6134 33.3543 15.6141 33.2273C15.7157 33.2279 15.8425 33.2539 15.969 33.3308C16.096 33.3314 16.1723 33.3064 16.1727 33.2303C17.9265 32.884 19.2238 32.4337 20.0646 31.8795L23.0471 29.6354C26.454 28.7645 28.1613 27.6055 28.1689 26.1582C28.0212 25.2688 27.9496 24.3797 27.9543 23.491L28.0587 22.9584C27.5564 21.8893 26.5961 21.021 25.203 20.3789C24.9999 20.3779 24.7457 20.4273 24.4406 20.5019C22.3359 19.9831 20.7122 19.7207 19.5697 19.7147C19.5189 19.7144 19.4681 19.7141 19.4175 19.6885C19.3414 19.6627 19.2908 19.637 19.2401 19.6114L19.3445 19.0787L19.2429 19.0782L18.6815 19.6085L18.453 19.6073L18.5828 19.0747L18.5856 18.5415L18.4597 18.3377C18.2306 18.4381 18.1285 18.5391 18.128 18.6407L18.2538 18.8699C17.9491 18.8683 17.7954 19.1214 17.7929 19.6038L17.4628 19.6021C17.6938 19.1209 17.7971 18.7913 17.7979 18.639L17.8001 18.2327C17.8009 18.0804 17.6237 17.9779 17.2432 17.8997L17.0395 18.0002L16.8116 17.8975ZM21.3414 20.7904L21.443 20.7909C21.6207 20.7918 21.7475 20.8179 21.8741 20.8947L22.1031 20.7944C22.2554 20.7952 22.3312 20.8717 22.3304 21.0241L22.3299 21.1256C22.2791 21.1254 22.2283 21.1251 22.1774 21.1502C22.1011 21.1752 22.0502 21.2003 21.9993 21.2255L21.3397 21.1204L21.3414 20.7904ZM23.2186 21.1303C23.3455 21.1309 23.4213 21.2075 23.4206 21.3345L23.319 21.3339C23.1921 21.3333 23.1163 21.2567 23.0916 21.1296L23.2186 21.1303ZM16.6917 21.4008L16.8948 21.4019L16.893 21.7319L16.6899 21.7309L16.6917 21.4008ZM15.4707 21.8261C15.4712 21.7245 15.5478 21.6487 15.6748 21.624L15.9028 21.7267C15.7236 22.0051 15.5705 22.1567 15.4689 22.1561L15.4707 21.8261ZM11.912 22.5691L14.4799 21.9224L14.5815 21.923L14.5792 22.3546C14.4511 22.5824 14.349 22.6835 14.2474 22.6829L13.1302 22.6771L12.5711 22.7757C12.5715 22.6996 12.5463 22.674 12.4701 22.6736L11.9099 22.9754L11.912 22.5691ZM23.0865 22.0944L23.6446 22.1989L23.6441 22.3005C23.5933 22.3002 23.5425 22.3 23.4916 22.3251C23.4153 22.3501 23.3644 22.3752 23.3135 22.4003C23.2627 22.4001 23.2119 22.3998 23.1613 22.3741C23.0852 22.3483 23.0346 22.3227 22.9839 22.297L23.0865 22.0944ZM17.4443 23.1313C17.7523 22.4982 18.4142 22.1715 19.4552 22.177C19.4548 22.2532 19.4801 22.2787 19.5562 22.2791C19.734 22.28 19.8611 22.2553 19.9884 22.1798L20.2164 22.2825C20.2672 22.2828 20.3179 22.2831 20.3689 22.258C20.4452 22.233 20.4961 22.2078 20.547 22.1827C21.435 22.3143 22.0685 22.5462 22.422 22.9289L23.0827 22.8308C23.9675 23.5717 24.4215 24.1581 24.4195 24.539C24.4143 25.5292 23.2657 26.6658 20.974 27.9233C18.43 28.8495 16.7011 29.2974 15.7616 29.2925L15.5331 29.2913L15.3052 29.1886L15.6392 28.4286L17.8975 23.87L17.8992 23.54L17.4443 23.1313ZM24.2027 22.3034L24.5327 22.3051L24.5322 22.4067L24.2021 22.405L24.2027 22.3034ZM25.7481 22.9463C25.7488 22.8193 25.8252 22.769 25.9777 22.7444L26.0793 22.7449C26.3073 22.8476 26.4083 22.9497 26.4078 23.0513L26.4071 23.1783L26.077 23.1765L25.7481 22.9463ZM24.3004 23.0403C24.7312 23.1949 24.9589 23.3484 24.9582 23.4754L24.9577 23.5769L24.8534 24.1096L24.7518 24.1091C24.7523 24.0075 24.6016 23.702 24.2997 23.1672L24.3004 23.0403ZM25.5151 23.8084C25.6674 23.8092 25.7432 23.8857 25.7426 24.0127L25.7408 24.3427C25.4598 24.6714 25.3057 25.0006 25.2789 25.2798L24.9488 25.2781C24.9497 25.1003 25.1046 24.6187 25.4135 23.8078L25.5151 23.8084ZM27.6075 26.6885L27.6069 26.7901C27.3254 27.2202 27.1466 27.4224 27.045 27.4219L27.0466 27.1172C27.1999 26.9403 27.2769 26.7883 27.2774 26.6868L27.6075 26.6885ZM25.9566 26.7814L26.1597 26.7825C26.1589 26.9348 26.0823 27.0106 25.9554 27.0099L25.9566 26.7814ZM26.3837 27.6469L26.6122 27.6481L26.6117 27.7497L26.3832 27.7485L26.3837 27.6469ZM26.0526 27.8483L26.2811 27.8495L26.2799 28.078L26.0514 28.0768L26.0526 27.8483ZM14.2202 27.8879L14.4487 27.8891L14.448 28.0161L14.2195 28.0149L14.2202 27.8879ZM22.5177 28.8962L22.5172 28.9978C22.3902 28.9971 22.1867 29.0723 21.9574 29.2234L21.7289 29.2222L21.7296 29.0952C22.0089 29.0967 22.1616 29.0213 22.1623 28.8944L22.5177 28.8962ZM17.7398 29.7345C17.7405 29.6076 17.8171 29.5318 17.9695 29.5072L18.2996 29.5089L18.2991 29.6105C18.1975 29.61 18.0448 29.6853 17.8662 29.8368L17.7393 29.8361L17.7398 29.7345ZM17.1812 29.7316L17.6383 29.734L17.6377 29.8356C17.46 29.8346 17.3075 29.8592 17.1802 29.9347L17.0786 29.9342L17.1812 29.7316ZM15.6314 29.9266L15.9868 29.9285L15.9863 30.03C15.8847 30.0295 15.7577 30.0542 15.6303 30.1297L15.5287 30.1292L15.6314 29.9266ZM16.4185 29.9307L16.647 29.9319L16.6465 30.0335L16.4179 30.0323L16.4185 29.9307ZM16.414 30.794L16.744 30.7957C16.7434 30.9227 16.6668 30.9985 16.5144 30.9977L16.4129 30.9971L16.414 30.794ZM18.0587 31.869C18.0595 31.7167 18.7723 31.365 20.1717 30.8137L20.4002 30.8149L20.3997 30.9164C20.2727 30.9158 20.12 30.9911 19.9416 31.1172C19.9401 31.3965 19.3546 31.6981 18.1852 31.9713L18.0582 31.9706L18.0587 31.869ZM15.5164 32.4905L15.7449 32.4917L15.7444 32.5933L15.5159 32.5921L15.5164 32.4905ZM12.9674 34.3815C12.9684 34.1784 13.1225 33.8491 13.4041 33.4189C13.5818 33.4198 13.7339 33.4714 13.8604 33.5482C13.9878 33.4727 14.1404 33.4228 14.2927 33.4236L14.7498 33.426L14.7486 33.6545C14.3161 33.8045 13.8324 34.0559 13.2975 34.3832L12.9674 34.3815ZM10.7333 39.1687L10.9618 39.1699L10.9613 39.2714C10.9605 39.4238 10.8839 39.4995 10.7316 39.4987L10.7333 39.1687ZM7.16923 40.9528C7.32157 40.9536 7.39734 41.0301 7.39654 41.1825L7.39601 41.284L7.1675 41.2828L7.16923 40.9528ZM7.84639 42.5559C7.84692 42.4544 7.92349 42.3786 8.05057 42.3539L8.04951 42.557L7.84639 42.5559ZM8.60584 42.9916L8.83435 42.9928L8.83382 43.0943L8.60531 43.0931L8.60584 42.9916ZM7.38484 43.4168C7.38551 43.2899 7.46208 43.2141 7.61455 43.1895L7.61229 43.6211L7.38378 43.6199L7.38484 43.4168ZM9.16216 43.4261L9.16163 43.5277C9.15977 43.8832 9.00477 44.3902 8.69676 45.0233L8.49417 44.9207C8.49457 44.8445 8.67483 44.363 9.03521 43.4255L9.16216 43.4261ZM5.50211 44.1433L5.60367 44.1438L5.60247 44.3723L5.50091 44.3718L5.50211 44.1433ZM7.70601 45.1197C7.75865 44.7645 7.86114 44.5873 8.03888 44.5882L8.03715 44.9183C8.03648 45.0453 7.95991 45.121 7.83296 45.1204L7.70601 45.1197ZM6.71247 45.7493L6.71193 45.8508C6.71007 46.2063 6.60745 46.4089 6.37854 46.4839C6.37867 46.4585 6.45617 46.205 6.6109 45.7487L6.71247 45.7493ZM8.0317 45.9593C8.03236 45.8324 8.1088 45.782 8.26127 45.7574L8.25954 46.0875L8.03103 46.0863L8.0317 45.9593ZM5.1614 46.1728L5.38991 46.174L5.38885 46.3771L5.16033 46.3759L5.1614 46.1728ZM6.04567 47.0153C6.14869 46.7366 6.25092 46.6101 6.37787 46.6108L6.37681 46.8139C6.37614 46.9409 6.29957 47.0167 6.14723 47.0159L6.04567 47.0153ZM5.15807 46.8076C4.97702 47.4414 4.82295 47.7707 4.72139 47.7701L4.59444 47.7695C4.74957 47.2371 4.82747 46.9074 4.828 46.8058L5.15807 46.8076ZM6.14657 47.1428C6.14484 47.4729 5.88788 48.0555 5.37595 48.84L5.04588 48.8382C5.3277 48.3573 5.53295 47.9521 5.71241 47.623C5.84082 47.3443 5.91792 47.167 5.91806 47.1416L6.14657 47.1428ZM4.49128 48.0736C4.49195 47.9467 4.56838 47.8963 4.72086 47.8717L4.71979 48.0748L4.49128 48.0736ZM4.91786 49.0407L5.14638 49.0419L5.14584 49.1435C5.14505 49.2958 5.06848 49.3716 4.91614 49.3708L4.91786 49.0407ZM4.71248 49.4713L5.04255 49.473C4.81285 49.7003 4.71009 49.9283 4.70916 50.106L4.58221 50.1054L4.58274 50.0038L4.71248 49.4713ZM33.6887 14.5581C33.6891 14.4819 33.6638 14.4564 33.5876 14.456C33.4607 14.4553 33.3841 14.5311 33.3579 14.6833C33.2056 14.6825 32.9012 14.6301 32.4191 14.5514C32.1141 14.626 31.9614 14.676 31.9361 14.6758C31.6518 15.6138 31.0102 16.9308 30.0618 18.627C30.0586 19.2364 29.4155 20.8326 28.1578 23.4159C27.9801 23.415 27.4942 24.0726 26.751 25.3891C26.7498 25.6176 26.8253 25.7449 26.9776 25.7457L26.8737 26.2022C26.7975 26.2018 26.7469 26.1762 26.7473 26.1C26.3664 26.098 26.0325 26.8326 25.7963 28.304C25.8724 28.3044 25.9229 28.3555 25.9225 28.4316C25.7412 29.1163 25.5616 29.4708 25.4347 29.4701C24.8962 30.4829 24.4104 31.1152 23.9268 31.3412C22.5288 31.6385 21.6893 31.9388 21.4592 32.2423C21.4826 32.6233 21.5577 32.8268 21.6846 32.8275C21.6809 33.5384 21.9583 33.8953 22.4915 33.8981L22.4885 34.4821C21.7967 35.6719 21.4367 36.5333 21.434 37.0411L21.4334 37.168C21.5591 37.3972 21.6602 37.4993 21.7871 37.5L21.6571 38.0833C21.0731 38.0802 20.7154 38.51 20.6093 39.3727C20.6855 39.3731 20.7106 39.424 20.7102 39.5002C20.6075 39.7282 20.5308 39.8294 20.48 39.8291C20.4761 40.5654 20.0148 41.3755 19.0706 42.2846C18.9922 42.7159 18.8118 43.2227 18.4787 43.805L18.6044 44.0342L18.4737 44.7444L18.4732 44.846C18.599 45.0752 18.7253 45.2028 18.8268 45.2033C19.1589 44.8242 19.3631 44.6221 19.4139 44.6224C19.879 43.076 20.1878 42.2905 20.3655 42.2914L20.6956 42.2931L20.6949 42.4201L20.4647 42.749L20.4603 43.5869C20.4591 43.8154 20.6109 43.9177 20.941 43.9194C21.2174 44.4795 21.419 44.7599 21.5206 44.7604C21.5195 44.9635 21.4415 45.3186 21.2612 45.8001L21.387 46.0292C21.0525 46.8654 20.7937 47.8035 20.5597 48.8433L20.5573 49.3003C20.6831 49.5295 20.8094 49.6571 20.9109 49.6577L21.4974 49.1783C21.8134 47.0217 22.0984 45.9314 22.327 45.9326L22.3325 44.8662L23.6235 40.785C24.1128 39.4672 24.3454 38.6813 24.3466 38.4528L24.2221 37.9951L25.1763 35.1817C25.1798 34.4962 26.782 34.0222 29.9829 33.7088C30.5668 33.7119 30.871 33.8151 30.9206 34.0438L30.9199 34.1708L30.7892 34.881C30.8645 35.0592 30.9147 35.161 30.9145 35.2118C30.7299 36.5058 30.6491 37.394 30.6465 37.9018L30.6439 38.3842L30.4137 38.7131L30.3971 41.8869L30.5228 42.1161C30.4467 42.1157 30.3957 42.1408 30.3953 42.217L30.3904 43.1564L30.1619 43.1552L30.1607 43.3837L30.3892 43.3849L30.3848 44.2228L30.1563 44.2216L30.1546 44.5517L30.9658 44.8098C31.499 44.8126 31.7756 45.3219 31.7704 46.3121C31.8974 46.3128 32.0255 46.0849 32.1295 45.6284C31.9791 45.2468 31.9044 44.9671 31.9052 44.8148L32.0335 44.5615L31.9096 43.9769L32.3745 42.4812L32.2742 42.2268L32.5058 41.644C32.6581 41.6448 32.7339 41.7214 32.733 41.8991L32.7318 42.1276C32.7307 42.3308 32.6534 42.5589 32.4997 42.812L32.6253 43.0666C32.4984 43.0659 32.3699 43.3445 32.2656 43.8772C32.2648 44.0295 32.3913 44.1064 32.6199 44.1076L32.1167 48.0659C32.1159 48.2183 32.2417 48.4474 32.4684 48.7787L32.4599 50.4037L32.3299 50.987C32.4544 51.4701 32.5547 51.6991 32.6817 51.6998C33.165 51.5246 33.3953 51.1957 33.398 50.6625C33.3988 50.5102 33.2731 50.281 33.0463 49.9497L33.0616 47.0298L32.9358 46.8007C33.0628 46.8013 33.1406 46.497 33.1947 45.8625C33.1185 45.8621 33.068 45.8111 33.0684 45.7349C33.1445 45.7353 33.1955 45.7102 33.1959 45.634L33.1965 45.5071C33.199 45.0247 33.2274 44.4662 33.3066 43.8826L33.2062 43.6536L33.2069 43.5266C33.2577 43.5269 33.359 43.5782 33.5363 43.6553C33.6379 43.6558 33.7918 43.352 34.0236 42.7184L34.0255 42.3629L33.6738 41.6501C33.8019 41.4223 33.904 41.3213 34.0309 41.3219C34.1118 40.4337 34.3179 39.8508 34.6241 39.5731L34.6309 38.2782L34.5051 38.049C34.5813 38.0494 34.6323 37.9989 34.6327 37.9227L34.6455 35.4852L34.5185 35.4846L34.1619 35.7112L34.0603 35.7107C34.139 35.2287 34.2418 35.0007 34.4195 35.0016C34.3715 34.4682 34.246 34.1882 34.0683 34.1873L34.0702 33.8318L33.8435 33.4751L35.1197 32.2123L35.1209 31.9838C34.9951 31.7546 34.8688 31.627 34.7673 31.6264L34.5382 31.7268C34.5386 31.6506 34.3864 31.6244 34.0817 31.6229L34.0824 31.4959C35.1522 30.8413 36.6015 30.4681 38.4049 30.3505L38.9888 30.3536C39.1158 30.3543 39.2438 30.1518 39.3474 29.7715C41.9915 29.0998 43.3144 28.6243 43.3156 28.3958L43.3162 28.2688L43.2147 28.2683L42.9601 28.3939L42.9608 28.267C42.375 28.594 41.7141 28.7429 40.9778 28.739L40.0383 28.7341C38.9438 29.2616 37.8759 29.5353 36.7841 29.5295C36.4541 29.5278 36.3024 29.4001 36.3036 29.1716L36.3041 29.07C36.9147 28.8447 37.2962 28.7197 37.4739 28.7207L37.4751 28.4921C37.3736 28.4916 37.1958 28.4907 36.9164 28.5146C36.5608 28.5381 36.1544 28.5614 35.7227 28.5845C35.1641 28.5816 34.6567 28.5028 34.2004 28.348C34.0481 28.3472 33.8976 27.991 33.7489 27.3046C33.877 27.0768 34.0046 26.9505 34.1062 26.951C34.1066 26.8749 34.0589 26.2906 33.9884 25.1984C33.9899 24.9192 34.1441 24.5645 34.4764 24.1346L34.4769 24.033L34.223 24.0317L34.2256 23.5493C34.4795 23.5506 34.635 22.942 34.7177 21.6983C34.7181 21.6221 34.6678 21.5203 34.5926 21.3422L34.7233 20.6319L34.7263 20.0479L34.6006 19.8188C34.7529 19.8196 34.8295 19.7438 34.8303 19.5914L34.8309 19.4645L34.7306 19.2355C34.8829 19.2363 35.0113 18.9576 35.0903 18.4248L34.8456 16.6716C34.9217 16.672 34.9728 16.6215 34.9732 16.5453C34.9739 16.4183 34.8981 16.3418 34.7459 16.3156L34.8505 15.7321C34.853 15.2497 34.5506 14.8165 33.9431 14.4578L33.6887 14.5581ZM29.4308 27.6121C30.6404 24.5207 31.436 22.8999 31.7924 22.724L31.8909 23.3085L31.8859 24.248C31.8851 24.4003 32.0117 24.4771 32.2402 24.4783L31.8822 24.9589L31.8798 25.4159L32.0056 25.6451C31.8786 25.6444 31.8021 25.7202 31.7759 25.8724L31.8761 26.1269C31.7745 26.1263 31.6965 26.4814 31.6421 27.1667L31.7679 27.3958C31.6917 27.3954 31.6407 27.4459 31.6403 27.5221L31.6323 29.0455C30.6405 29.345 29.7762 29.5436 29.0648 29.6161C29.0672 29.1591 29.2226 28.5759 29.531 27.8665L29.4308 27.6121ZM29.5451 25.1752L29.6721 25.1758C29.595 25.3532 29.5437 25.4545 29.5433 25.5306L29.4417 25.5301L29.4424 25.4032L29.5451 25.1752ZM29.3142 25.631L29.4412 25.6317L29.44 25.8602L29.313 25.8595L29.3142 25.631ZM28.955 26.3401C28.9557 26.2131 29.0323 26.1374 29.2101 26.1129L29.2089 26.3414L28.955 26.3401ZM28.8504 26.9235L29.0784 27.0263C28.9251 27.2032 28.8475 27.4821 28.8455 27.863L28.617 27.8618C28.6172 27.811 28.6178 27.7094 28.6438 27.5826C28.6701 27.405 28.6967 27.1766 28.7235 26.9229L28.8504 26.9235ZM43.4505 26.873C42.052 27.2466 40.9334 27.52 40.0689 27.744C39.3063 27.9177 38.8995 28.0172 38.8741 28.017L38.8729 28.2455C39.66 28.2497 40.0413 28.1755 40.0421 28.0231C42.3798 27.6799 43.5492 27.4067 43.5502 27.229L43.5508 27.1021L43.4505 26.873ZM28.36 28.4444L28.487 28.4451L28.4846 28.9021L28.2561 28.9009L28.36 28.4444ZM28.1284 29.0272L28.357 29.0284L28.3564 29.1299L28.1279 29.1288L28.1284 29.0272ZM28.707 30.0712L29.8749 30.0774L29.8737 30.3059C29.5183 30.304 29.1367 30.429 28.7039 30.6552C28.7043 30.5791 28.7556 30.4778 28.8327 30.3004L28.707 30.0712ZM19.0755 41.3452C18.9486 41.3445 18.872 41.4203 18.8458 41.5725L19.0743 41.5737L19.0755 41.3452ZM19.6546 42.2877C19.6553 42.1607 19.7318 42.085 19.8843 42.0604L19.8831 42.2889L19.6546 42.2877ZM19.0664 43.0971L19.2949 43.0983L19.2937 43.3268L19.0652 43.3256L19.0664 43.0971ZM33.8833 45.2822L33.8778 46.3232L34.0034 46.5777C34.1558 46.5785 34.2323 46.5028 34.2333 46.325L34.2357 45.868L34.1118 45.2834L33.8833 45.2822ZM42.0495 18.0296C41.5643 18.5603 41.2317 19.041 41.052 19.4209C40.6641 20.7646 40.1528 21.4221 39.4927 21.4186C37.84 21.8416 36.7207 22.242 36.1604 22.5692C33.9481 23.1923 32.8284 23.6689 32.827 23.9482L32.8259 24.1513C32.8251 24.3037 32.9009 24.3802 33.0532 24.381C33.3083 24.1539 33.8685 23.8521 34.734 23.425L34.9372 23.426L34.8328 23.9587L34.8323 24.0603L34.9328 24.2639C36.331 23.9412 37.1194 23.6914 37.2725 23.5398L37.4757 23.5409L37.4745 23.7694C36.1765 24.3466 35.5145 24.6986 35.4886 24.8L35.4868 25.1301C35.6631 25.4103 35.8147 25.5635 35.9162 25.564C36.3249 25.1091 37.1142 24.6816 38.2589 24.2813L38.4874 24.2825L37.0166 28.769C36.5028 29.9089 36.2456 30.5424 36.245 30.6693C35.7104 30.9204 35.4556 31.0968 35.4551 31.1984L35.4545 31.3C35.6069 31.3008 35.8604 31.3783 36.2404 31.5326C36.1631 31.7607 36.0602 32.0141 35.8811 32.267C33.8992 32.536 32.6789 32.8343 32.2453 33.2129L32.3458 33.4165C32.5743 33.4177 33.2606 33.269 34.4554 32.9959C34.455 33.0721 34.4801 33.123 34.5563 33.1234L35.445 33.1281L35.4434 33.4327C34.8587 33.5566 34.5531 33.7328 34.5519 33.9613C34.4757 33.9609 34.4505 33.9354 34.4509 33.8592C33.4854 33.9811 33.002 34.1563 33.0008 34.3848L33.1267 34.5886C33.8383 34.4654 34.3211 34.3917 34.5497 34.3929L34.6766 34.3936L34.8792 34.4962C34.8783 34.6739 34.8522 34.8008 34.7754 34.9273L34.8759 35.131C34.5962 35.2057 34.3919 35.4331 34.2123 35.7877L34.2107 36.0923C34.2099 36.2447 34.2856 36.3212 34.438 36.322C34.3074 37.0069 34.1025 37.3613 33.874 37.3601C33.6175 37.8412 33.2832 38.652 32.8708 39.8178L32.8698 40.0209L33.0983 40.0221L33.0966 40.3522L32.5385 40.2477C32.538 40.3493 32.4353 40.5519 32.2051 40.8807L32.3056 41.0844C32.2294 41.084 32.2038 41.1346 32.2034 41.2108L32.2012 41.617C32.2774 41.6174 32.3029 41.5922 32.3033 41.516L32.5313 41.6188C32.3774 41.9227 32.3002 42.1254 32.2995 42.2523L31.9694 42.2506L32.2001 41.8456L32.2012 41.617L31.9722 41.7174C31.7908 42.4274 31.6619 42.7822 31.535 42.7815C31.3539 43.4154 31.0212 43.9214 30.5115 44.2743L30.6373 44.5034C30.3322 44.578 29.767 45.8446 28.9415 48.3286L28.9404 48.5317C28.9397 48.6587 29.0155 48.7352 29.1678 48.736L29.499 48.5346L29.6005 48.5352C29.6001 48.6113 29.5741 48.7382 29.4972 48.8647C28.833 49.6484 28.5005 50.1036 28.4998 50.2306C28.4992 50.3576 28.6765 50.4347 29.0574 50.4366C29.0564 50.6144 29.0045 50.8426 28.927 51.0961L28.7238 51.0951C28.7246 50.9427 28.6489 50.8662 28.4965 50.8654L28.7266 50.5619L28.7273 50.4349L28.4988 50.4337L28.1675 50.6605L28.268 50.8642C27.9379 50.8624 27.6059 51.2416 27.2717 52.0269L27.372 52.256C27.2197 52.2552 26.7851 52.8115 26.0428 53.9502L26.0411 54.2803C26.0404 54.4072 26.1162 54.4838 26.2686 54.4846L26.3701 54.4851C26.5225 54.4859 27.1887 53.3214 28.3944 50.9664L28.5976 50.9674C28.4908 51.9571 28.3104 52.464 28.0565 52.4627C28.0562 52.5135 28.056 52.5642 28.0811 52.6152C28.1061 52.6915 28.1312 52.7424 28.1563 52.7933C27.619 53.5776 27.1312 54.6161 26.693 55.8579L26.6902 56.3911L26.816 56.6203C26.9945 56.4689 27.1472 56.3935 27.2488 56.3941C27.7908 54.7211 28.4083 53.1755 29.0506 51.7316L28.9248 51.5024C29.1026 51.5033 29.3077 51.1235 29.5911 50.3379L29.9466 50.3397L29.9443 50.7714C30.4504 51.1041 30.7031 51.3339 30.7022 51.5117C30.4195 52.145 30.264 52.7535 30.2609 53.3375C30.2603 53.4645 30.3361 53.541 30.463 53.5417L30.6915 53.5429C30.9228 53.0109 31.3361 51.6673 31.9314 49.5122C32.5187 48.8805 32.8256 48.4505 32.8268 48.222C32.8272 48.1458 32.7512 48.12 32.5989 48.1192C32.6 47.8907 32.7808 47.3077 33.1663 46.421L33.3949 46.4222C33.3942 46.5491 33.2137 47.0814 32.8279 48.0189L32.8274 48.1204C33.3879 47.7425 34.3132 45.6145 35.6284 41.7366L37.8713 35.2736C39.8578 34.116 40.8514 33.4864 40.852 33.3595C40.9536 33.36 41.0804 33.3861 41.207 33.4629C41.3339 33.4636 41.4102 33.4386 41.4106 33.3624C43.1644 33.0161 44.4617 32.5659 45.3025 32.0117L48.285 29.7675C51.6919 28.8967 53.3992 27.7376 53.4068 26.2904C53.2591 25.4009 53.1876 24.5119 53.1922 23.6232L53.2966 23.0905C52.7944 22.0215 51.8341 21.1532 50.4409 20.5111C50.2378 20.51 49.9836 20.5595 49.6785 20.6341C47.5738 20.1152 45.9502 19.8528 44.8076 19.8468C44.7568 19.8466 44.706 19.8463 44.6554 19.8206C44.5794 19.7948 44.5287 19.7692 44.4781 19.7435L44.5824 19.2109L44.4808 19.2103L43.9195 19.7406L43.691 19.7394L43.8207 19.2069L43.8235 18.6737L43.6976 18.4699C43.4686 18.5703 43.3665 18.6713 43.3659 18.7728L43.4917 19.002C43.187 19.0004 43.0333 19.2535 43.0308 19.736L42.7007 19.7342C42.9318 19.253 43.0351 18.9235 43.0359 18.7711L43.038 18.3649C43.0388 18.2125 42.8616 18.11 42.4811 18.0319L42.2775 18.1324L42.0495 18.0296ZM46.5793 20.9225L46.6809 20.923C46.8586 20.924 46.9854 20.95 47.112 21.0269L47.341 20.9265C47.4934 20.9273 47.5692 21.0039 47.5684 21.1562L47.5678 21.2578C47.517 21.2575 47.4663 21.2572 47.4154 21.2824C47.339 21.3074 47.2881 21.3325 47.2372 21.3576L46.5776 21.2526L46.5793 20.9225ZM48.4565 21.2624C48.5834 21.2631 48.6592 21.3397 48.6585 21.4666L48.557 21.4661C48.43 21.4654 48.3543 21.3888 48.3295 21.2618L48.4565 21.2624ZM41.9296 21.5329L42.1327 21.534L42.131 21.8641L41.9279 21.863L41.9296 21.5329ZM40.7086 21.9582C40.7091 21.8566 40.7857 21.7809 40.9128 21.7561L41.1408 21.8589C40.9616 22.1373 40.8084 22.2888 40.7069 22.2883L40.7086 21.9582ZM37.15 22.7013L39.7178 22.0546L39.8194 22.0551L39.8171 22.4867C39.689 22.7146 39.5869 22.8156 39.4853 22.8151L38.3682 22.8092L37.8091 22.9079C37.8095 22.8317 37.7842 22.8062 37.708 22.8058L37.1478 23.1075L37.15 22.7013ZM48.3245 22.2266L48.8825 22.3311L48.882 22.4326C48.8312 22.4324 48.7804 22.4321 48.7295 22.4572C48.6532 22.4822 48.6023 22.5073 48.5514 22.5325C48.5006 22.5322 48.4498 22.5319 48.3992 22.5063C48.3232 22.4805 48.2725 22.4548 48.2219 22.4292L48.3245 22.2266ZM42.6823 23.2635C42.9903 22.6303 43.6521 22.3037 44.6931 22.3091C44.6927 22.3853 44.718 22.4108 44.7942 22.4112C44.9719 22.4122 45.099 22.3874 45.2263 22.3119L45.4543 22.4147C45.5051 22.415 45.5559 22.4152 45.6068 22.3901C45.6831 22.3651 45.734 22.34 45.7849 22.3149C46.6729 22.4465 47.3065 22.6783 47.6599 23.061L48.3206 22.9629C49.2054 23.7039 49.6594 24.2903 49.6574 24.6711C49.6522 25.6613 48.5037 26.7979 46.2119 28.0555C43.668 28.9816 41.939 29.4296 40.9996 29.4247L40.7711 29.4235L40.5431 29.3207L40.8772 28.5607L43.1354 24.0022L43.1372 23.6721L42.6823 23.2635ZM49.4406 22.4356L49.7707 22.4373L49.7701 22.5389L49.4401 22.5371L49.4406 22.4356ZM50.9861 23.0784C50.9867 22.9515 51.0632 22.9011 51.2157 22.8765L51.3172 22.877C51.5452 22.9798 51.6462 23.0819 51.6457 23.1834L51.645 23.3104L51.315 23.3087L50.9861 23.0784ZM49.5383 23.1724C49.9691 23.327 50.1968 23.4806 50.1962 23.6075L50.1957 23.7091L50.0913 24.2417L49.9897 24.2412C49.9903 24.1396 49.8395 23.8342 49.5376 23.2994L49.5383 23.1724ZM50.753 23.9405C50.9054 23.9413 50.9812 24.0179 50.9805 24.1448L50.9788 24.4749C50.6977 24.8035 50.5437 25.1328 50.5168 25.4119L50.1867 25.4102C50.1877 25.2325 50.3425 24.7509 50.6515 23.94L50.753 23.9405ZM52.8454 26.8206L52.8449 26.9222C52.5633 27.3524 52.3845 27.5546 52.283 27.554L52.2846 27.2493C52.4378 27.0724 52.5148 26.9205 52.5153 26.8189L52.8454 26.8206ZM51.1945 26.9136L51.3976 26.9146C51.3968 27.067 51.3203 27.1427 51.1933 27.1421L51.1945 26.9136ZM51.6216 27.7791L51.8501 27.7803L51.8496 27.8818L51.6211 27.8807L51.6216 27.7791ZM51.2905 27.9805L51.519 27.9817L51.5178 28.2102L51.2893 28.209L51.2905 27.9805ZM39.4581 28.0201L39.6866 28.0213L39.6859 28.1482L39.4574 28.147L39.4581 28.0201ZM47.7557 29.0284L47.7551 29.13C47.6282 29.1293 47.4247 29.2044 47.1953 29.3555L46.9668 29.3543L46.9675 29.2274C47.2468 29.2289 47.3995 29.1535 47.4002 29.0265L47.7557 29.0284ZM42.9778 29.8667C42.9784 29.7397 43.055 29.6639 43.2075 29.6394L43.5375 29.6411L43.537 29.7426C43.4355 29.7421 43.2827 29.8175 43.1042 29.9689L42.9772 29.9682L42.9778 29.8667ZM42.4192 29.8637L42.8762 29.8661L42.8757 29.9677C42.6979 29.9668 42.5455 29.9914 42.4181 30.0669L42.3166 30.0663L42.4192 29.8637ZM40.8693 30.0588L41.2248 30.0606L41.2242 30.1622C41.1227 30.1616 40.9956 30.1864 40.8682 30.2619L40.7667 30.2613L40.8693 30.0588ZM41.6564 30.0629L41.8849 30.0641L41.8844 30.1656L41.6559 30.1644L41.6564 30.0629ZM41.6519 30.9261L41.982 30.9279C41.9813 31.0548 41.9047 31.1306 41.7524 31.1298L41.6508 31.1293L41.6519 30.9261ZM43.2967 32.0012C43.2975 31.8488 44.0103 31.4971 45.4096 30.9458L45.6382 30.947L45.6376 31.0486C45.5107 31.0479 45.3579 31.1233 45.1795 31.2493C45.1781 31.5286 44.5925 31.8302 43.4231 32.1034L43.2961 32.1027L43.2967 32.0012ZM40.7543 32.6226L40.9828 32.6238L40.9823 32.7254L40.7538 32.7242L40.7543 32.6226ZM38.2053 34.5136C38.2064 34.3105 38.3605 33.9812 38.642 33.5511C38.8197 33.552 38.9718 33.6036 39.0984 33.6804C39.2257 33.6049 39.3783 33.5549 39.5307 33.5557L39.9877 33.5581L39.9865 33.7866C39.5541 33.9367 39.0703 34.1881 38.5354 34.5154L38.2053 34.5136ZM35.9712 39.3008L36.1998 39.302L36.1992 39.4036C36.1984 39.5559 36.1219 39.6317 35.9695 39.6309L35.9712 39.3008ZM32.4072 41.0849C32.5595 41.0857 32.6353 41.1623 32.6345 41.3146L32.6339 41.4162L32.4054 41.415L32.4072 41.0849ZM33.0843 42.6881C33.0849 42.5865 33.1614 42.5108 33.2885 42.486L33.2874 42.6892L33.0843 42.6881ZM33.8438 43.1237L34.0723 43.1249L34.0718 43.2265L33.8432 43.2253L33.8438 43.1237ZM32.6228 43.549C32.6234 43.422 32.7 43.3462 32.8525 43.3217L32.8502 43.7533L32.6217 43.7521L32.6228 43.549ZM34.4001 43.5583L34.3996 43.6598C34.3977 44.0153 34.2427 44.5223 33.9347 45.1555L33.7321 45.0528C33.7325 44.9767 33.9128 44.4952 34.2731 43.5576L34.4001 43.5583ZM30.74 44.2754L30.8416 44.276L30.8404 44.5045L30.7388 44.504L30.74 44.2754ZM32.9439 45.2518C32.9966 44.8966 33.0991 44.7194 33.2768 44.7204L33.2751 45.0505C33.2744 45.1774 33.1978 45.2532 33.0709 45.2525L32.9439 45.2518ZM31.9504 45.8814L31.9499 45.983C31.948 46.3384 31.8454 46.541 31.6165 46.616C31.6166 46.5906 31.6941 46.3371 31.8488 45.8809L31.9504 45.8814ZM33.2696 46.0915C33.2703 45.9645 33.3467 45.9141 33.4992 45.8895L33.4975 46.2196L33.269 46.2184L33.2696 46.0915ZM30.3993 46.3049L30.6278 46.3061L30.6268 46.5093L30.3983 46.5081L30.3993 46.3049ZM31.2836 47.1475C31.3866 46.8687 31.4889 46.7423 31.6158 46.743L31.6147 46.9461C31.6141 47.073 31.5375 47.1488 31.3852 47.148L31.2836 47.1475ZM30.396 46.9397C30.215 47.5735 30.0609 47.9028 29.9593 47.9023L29.8324 47.9016C29.9875 47.3692 30.0654 47.0395 30.0659 46.938L30.396 46.9397ZM31.3845 47.275C31.3828 47.605 31.1258 48.1877 30.6139 48.9721L30.2838 48.9704C30.5656 48.4894 30.7709 48.0843 30.9503 47.7551C31.0788 47.4765 31.1559 47.2992 31.156 47.2738L31.3845 47.275ZM29.7292 48.2058C29.7299 48.0788 29.8063 48.0284 29.9588 48.0038L29.9577 48.207L29.7292 48.2058ZM30.1558 49.1728L30.3843 49.174L30.3838 49.2756C30.383 49.4279 30.3064 49.5037 30.1541 49.5029L30.1558 49.1728ZM29.9504 49.6034L30.2805 49.6051C30.0508 49.8325 29.948 50.0604 29.9471 50.2382L29.8201 50.2375L29.8207 50.136L29.9504 49.6034ZM55.2762 18.4036C55.2769 18.2766 55.2011 18.2 55.0489 18.1739L53.9727 20.0472L54.0984 20.2763C53.8166 20.7573 53.5107 20.9842 53.1553 20.9823C52.9224 21.819 52.5139 22.2485 51.9807 22.2457L51.8537 22.2451C51.1682 22.2415 50.8135 22.0873 50.8151 21.7826L50.2311 21.7795C50.23 22.0081 50.1018 22.2359 49.8721 22.4632L49.8714 22.5902L50.5793 23.1779C50.6047 23.178 50.7319 23.1279 50.9354 23.0528C51.2651 23.1307 51.5695 23.183 51.8488 23.1845L51.7461 23.4125L50.9341 23.3067L50.8071 23.306L50.5781 23.4064L50.6735 24.5749C48.5139 24.8429 47.4204 25.1672 47.4187 25.4973C47.4181 25.5988 47.4429 25.7259 47.5184 25.8533L49.9838 25.3838L50.2116 25.5119L50.5683 25.2853L50.9237 25.2871L50.9225 25.5156C49.906 25.688 49.244 26.0401 48.9112 26.5461L48.9106 26.6731L49.2637 27.132C49.5683 27.1336 50.3061 26.8581 51.5023 26.3312L51.7301 26.4593C51.5997 27.1188 51.3931 27.7779 51.1358 28.4367L50.0663 29.0151L50.1902 29.5997L50.4194 29.474L50.5463 29.4747L50.7742 29.6028C50.6208 29.8051 50.5438 29.9571 50.5433 30.0586L50.1878 30.0568L50.1902 29.5997C49.7066 29.8257 49.3241 30.1284 49.0173 30.5331L49.0161 30.7616L49.2428 31.1182L49.2423 31.2198C48.9373 31.269 48.7843 31.3951 48.7834 31.5729L48.7822 31.8014C48.7812 31.9791 48.857 32.0557 49.0094 32.0565L49.2385 31.9307C49.2381 32.0069 49.466 32.135 49.9476 32.2899L49.7155 32.9743C48.9172 35.1029 48.53 36.3197 48.5285 36.599C47.8293 39.2106 47.3392 40.6807 47.0834 41.0348C46.0913 41.3851 45.5811 41.8395 45.5781 42.4234C44.1793 42.8478 43.2632 43.2492 42.8806 43.5773L42.981 43.8063C42.9048 43.8059 42.8791 43.8566 42.8787 43.9328C42.8026 43.9324 42.7013 43.881 42.5239 43.8039C42.27 43.8026 42.065 44.157 41.9344 44.8673L42.1629 44.8685C42.239 44.8689 42.2901 44.8184 42.2905 44.7422C43.1792 44.7468 43.8404 44.5472 44.274 44.1686C44.4524 44.0426 45.0631 43.7918 46.1566 43.4675L46.2582 43.468L45.6681 44.6329L45.6674 44.7599C45.6928 44.76 45.8454 44.71 46.1505 44.6354C46.5106 43.7486 46.8686 43.2681 47.1988 43.2444L47.4273 43.2456L46.6092 44.3078C45.655 47.1212 44.7826 48.8686 44.0173 49.5501L44.0156 49.8802L44.371 49.8821C45.3452 48.1098 45.883 47.2239 46.01 47.2246C46.0086 47.4785 46.0584 47.6819 46.1339 47.8092C46.0069 47.8086 45.905 47.8842 45.8788 48.0364L45.8769 48.3919L46.1291 48.7233L46.3581 48.6229C46.9519 46.7471 47.5178 45.3535 48.0052 44.4166L48.1321 44.4173L48.1303 44.7728C48.1291 45.0013 48.0517 45.2294 47.898 45.4825C47.9222 45.7111 47.9464 45.9398 47.9709 46.1176C47.9956 46.2447 47.9951 46.3463 47.9948 46.3971L47.5273 48.4005L47.7553 48.5033L48.1119 48.2766C48.3485 46.729 48.5812 45.9431 48.8097 45.9443C49.2413 45.9466 49.7542 44.9844 50.3484 43.0324C50.3506 42.6008 51.0637 42.1982 52.4619 41.8755C55.4348 41.4594 56.9094 41.0863 56.9113 40.7308C57.598 40.5059 57.9556 40.1015 57.9584 39.5683L58.5417 39.6983C58.6687 39.699 59.0256 39.4215 59.6125 38.866L60.2981 38.8696L61.4653 39.0027C61.4657 38.9265 61.5168 38.876 61.593 38.8764C61.592 39.0541 61.6678 39.1307 61.8201 39.1315C61.9725 39.1323 62.0491 39.0565 62.05 38.8788L62.0505 38.7772L61.6976 38.2929C61.6468 38.2927 61.545 38.3429 61.3668 38.4182C61.2403 38.3413 61.0628 38.2896 60.8851 38.2887L59.7171 38.2826C59.5402 38.1293 59.3883 38.0523 59.2613 38.0517L59.2618 37.9501C59.4396 37.951 59.5922 37.901 59.7195 37.8255L59.9474 37.9537C60.1766 37.8279 60.3042 37.7016 60.3047 37.6001C60.3054 37.4731 60.2296 37.3966 60.0774 37.3704L59.9504 37.3697L57.2821 37.8128L56.6987 37.6828C56.1646 37.8577 55.7072 37.9315 55.2756 37.9292L54.9468 37.6736L54.8199 37.6729L52.4796 38.4986L52.3526 38.4979L52.1248 38.3698C53.1567 35.2521 53.7514 33.2239 53.9085 32.3107C53.9118 31.6759 55.4392 30.9222 58.491 29.9987C60.9558 29.6307 62.2523 29.3328 62.3298 29.0793C62.3306 28.927 62.2294 28.8503 62.0009 28.8491C62.612 28.5222 62.918 28.2699 62.9187 28.1429C64.164 27.9209 64.7998 27.7211 64.8006 27.5688L64.8018 27.3403C64.245 27.0073 63.942 26.6756 63.8673 26.3959L63.7658 26.3954C62.9262 26.7211 61.655 27.0191 60.0031 27.3152C59.8273 26.9334 59.6253 26.7292 59.4222 26.7281C59.346 26.7277 59.3203 26.7784 59.3199 26.8545C57.3877 27.3269 56.2941 27.6766 56.0391 27.8784C55.9126 27.8016 55.7605 27.75 55.5828 27.749L54.9988 27.746L55.0012 27.289C55.2338 26.5031 55.3378 26.0466 55.3386 25.8942C55.342 25.2341 57.8333 24.6631 62.8379 24.1815L63.0659 24.2843C63.7267 24.1608 64.616 24.0385 65.759 23.9683L65.7603 23.7144C65.1262 23.5841 64.4413 23.4536 63.6546 23.3733C63.6565 23.0178 64.6229 22.7182 66.5794 22.4491C66.706 22.526 66.8582 22.5522 67.0359 22.5531L67.1629 22.5537C67.5199 22.2509 67.8 22.1 67.9778 22.101L68.5611 22.231L68.9184 21.8774L68.9191 21.7504C68.9197 21.6235 68.7679 21.5211 68.4639 21.3926C68.3116 21.3918 68.235 21.4676 68.2087 21.6452L67.5238 21.5146C67.351 20.5742 66.8202 20.1144 65.8807 20.1095C65.8794 20.3634 65.142 20.5627 63.6687 20.6819C63.6691 20.6057 63.6186 20.5547 63.5424 20.5543C63.4151 20.6298 63.2625 20.6798 63.0847 20.6789L62.8562 20.6777L62.2741 20.3191C58.9435 21.165 56.9608 21.5863 56.3006 21.5828L56.0721 21.5816L56.0752 20.9976L55.9495 20.7431L55.3649 20.867C55.036 20.6367 54.7574 20.5083 54.5543 20.5072L54.5548 20.4057L55.2762 18.4036ZM65.8741 21.379L66.128 21.3803L66.7113 21.5104L66.7106 21.6373C66.4313 21.6358 66.1519 21.6598 65.8722 21.7345L65.8741 21.379ZM51.0248 25.3892C51.0254 25.2623 51.102 25.1865 51.2545 25.1619L51.6099 25.1638C51.6094 25.2653 51.4564 25.3915 51.151 25.5168L51.0241 25.5162L51.0248 25.3892ZM61.8813 27.4519L62.1098 27.4531L62.3378 27.5559C62.337 27.7082 62.2604 27.784 62.1081 27.7832C61.9811 27.7825 61.9054 27.706 61.8808 27.5535L61.8813 27.4519ZM59.3133 28.1241C59.314 27.9971 59.746 27.9232 60.584 27.9022L60.7109 27.9029L60.7103 28.0298C59.8712 28.2539 59.286 28.4794 58.9548 28.7062L58.8278 28.7055L59.3133 28.1241ZM54.8644 29.1672C54.8651 29.0402 55.3229 28.8903 56.2634 28.6921L56.2622 28.9206C55.7794 28.9942 55.398 29.0938 55.0924 29.2699L54.8644 29.1672ZM52.9636 33.3467C52.9645 33.169 52.9399 33.0165 52.8644 32.8892C53.0703 32.357 53.2241 32.0786 53.3257 32.0791L53.5537 32.1818C53.3234 32.5107 53.2198 32.9164 53.2175 33.3481L52.9636 33.3467ZM52.8583 34.0571L53.0868 34.0583L53.0863 34.1599L52.8578 34.1587L52.8583 34.0571ZM50.8675 36.0272L50.9691 36.0277L50.9672 36.3832L50.8656 36.3827L50.8675 36.0272ZM50.8638 36.7381L50.7344 37.1945L50.5066 37.0663C50.5834 36.9398 50.6095 36.813 50.6099 36.7368L50.8638 36.7381ZM52.1328 36.8463L52.1321 36.9733C52.0785 37.5062 51.9501 37.7849 51.7724 37.7839L51.7742 37.4285C51.9529 37.2517 52.03 37.0743 52.0312 36.8458L52.1328 36.8463ZM49.914 38.7137C50.2997 37.7762 50.5306 37.3204 50.6068 37.3208L50.6056 37.5493C50.4997 38.3866 50.3451 38.8175 50.1419 38.8164L49.9134 38.8152L49.914 38.7137ZM58.0927 38.1725L58.4493 37.9458L58.5509 37.9464C58.7033 37.9472 58.779 38.0237 58.7782 38.1761C58.0922 38.2741 57.6093 38.3477 57.3806 38.3973L57.3818 38.1688C57.5595 38.1697 57.7375 38.1198 57.8648 38.0443C57.8644 38.1205 57.8896 38.1714 57.9657 38.1718L58.0927 38.1725ZM51.5427 38.0112L51.7712 38.0124L51.6671 38.4943L51.5401 38.4937L51.5427 38.0112ZM54.1022 38.9641C54.1031 38.7864 54.9929 38.5625 56.7973 38.2673L56.9229 38.5218C56.7959 38.5212 55.8554 38.7194 54.1015 39.0911L54.1022 38.9641ZM56.5601 39.9164L57.271 39.9202L57.2705 40.0217C57.0928 40.0208 56.8132 40.0701 56.432 40.1443L56.5601 39.9164ZM55.1612 40.3662C55.4405 40.3676 55.6694 40.2926 55.848 40.1412L56.2034 40.1431C56.2026 40.2954 55.9735 40.4212 55.516 40.495L55.1606 40.4931L55.1612 40.3662ZM48.3642 43.733L48.4912 43.7336L48.49 43.9621L48.363 43.9615L48.3642 43.733ZM47.1908 44.7678L47.0615 45.2242L46.8335 45.1214C46.9106 44.9441 46.9619 44.8428 46.9623 44.7666L47.1908 44.7678ZM45.7937 44.8875L45.3089 45.342C45.2561 45.7226 45.0514 46.0262 44.72 46.2784L44.7181 46.6338L44.8439 46.863C45.2247 46.865 45.5833 46.2829 45.8941 45.1165L45.7937 44.8875ZM46.7307 45.3494L46.9592 45.3506C46.9584 45.503 46.8819 45.5787 46.7295 45.5779L46.7307 45.3494ZM67.2549 19.5327C67.593 17.9856 67.8516 17.0983 67.9799 16.8451C67.6507 16.6656 67.4992 16.5125 67.4999 16.3855C67.1685 16.6377 66.8606 17.2455 66.5761 18.2342C66.017 18.3328 65.7366 18.5345 65.7352 18.8138C65.2005 19.0903 64.9202 19.292 64.9196 19.3935L64.1071 19.3893C63.8784 19.4389 63.7499 19.7175 63.7474 20.1999C63.2082 21.3397 62.9239 22.303 62.9196 23.1155L62.5642 23.1137L61.9807 23.009C61.0147 23.2325 60.1488 23.7358 59.4083 24.519L59.4078 24.6206C59.5336 24.8498 59.6598 24.9774 59.7614 24.9779C60.1677 24.98 61.1087 24.6803 62.5593 24.0531C62.5589 24.1293 62.6855 24.1807 62.9141 24.1819L62.9122 24.5374C62.911 24.7659 62.7825 25.0699 62.5519 25.4496L62.6764 25.9326C62.5977 26.4147 62.316 26.8702 61.8566 27.3249L61.8559 27.4518L62.1836 27.9106L62.1824 28.1391C62.1791 28.7738 61.8982 29.0771 61.365 29.0743L61.0107 28.8439L60.6806 28.8422C60.4515 28.9679 60.3238 29.0942 60.3233 29.1958C60.4991 29.5775 60.7011 29.7817 60.9042 29.7828L60.7761 30.0106C59.8878 29.9298 59.2031 29.7739 58.6712 29.5172L58.442 29.643L58.9207 30.3564C58.5145 30.3543 58.2854 30.4546 58.2081 30.6828L58.2074 30.8097C58.7119 31.4471 59.5212 32.0607 60.6604 32.7015C60.6594 32.9046 60.2724 34.0706 59.4741 36.1992C59.5229 36.5803 59.6234 36.784 59.8011 36.7849C59.1047 38.8633 58.7421 40.2326 58.7387 40.8673C58.2266 41.7025 57.8413 42.5384 57.5574 43.4256C56.7656 44.3102 56.3814 44.9429 56.3797 45.273C56.4559 45.2734 56.5064 45.3244 56.506 45.4006L57.5494 44.949C57.9891 43.4025 58.247 42.6421 58.3741 42.6174L58.6026 42.6186L59.1861 42.7232C59.1819 43.5103 58.7141 45.5645 57.7572 48.9111L57.8829 49.1403C57.756 49.1396 57.6787 49.3424 57.6513 49.7231L57.7517 49.9521C58.158 49.9542 58.5981 48.3315 59.0723 45.0586C60.2445 44.2522 60.8312 43.7221 60.8327 43.4428C61.8397 40.2488 62.6647 37.8663 63.3075 36.3209C63.6183 35.1545 63.8499 34.5717 64.0276 34.5727L64.1546 34.5733C66.6382 35.475 67.8787 36.1671 67.8759 36.7003C68.8354 37.7209 70.5806 39.025 73.1115 40.5871C75.0094 41.8158 76.4516 42.7882 77.4126 43.5296C78.6023 44.2214 79.6639 45.141 80.5469 46.2374C81.2542 46.9267 81.6075 47.3348 81.6066 47.5125C81.7589 47.5133 81.8355 47.4376 81.8363 47.2852L81.357 46.6987L81.3576 46.5718C81.5861 46.573 81.9913 46.7782 82.5225 47.1619L86.1404 49.6437C86.3696 49.518 86.4972 49.3917 86.4978 49.2901L86.5008 48.7061C85.6176 47.6605 85.0619 47.099 84.859 47.0725L84.6299 47.1729C85.1603 47.7089 85.4379 48.0404 85.4375 48.1166L85.4363 48.3451C85.3347 48.3446 85.0304 48.2668 84.5234 48.1118C83.6136 47.2945 82.88 46.7829 82.2971 46.5767L79.1614 44.1227L79.3918 43.7685L79.3955 43.0575C78.3828 42.4936 77.8769 42.1355 77.8776 42.0086L77.88 41.5515C78.2608 41.5535 79.4496 42.423 81.4973 44.135L81.6243 44.1356C81.7766 44.1364 81.8532 44.0607 81.854 43.9083L81.8553 43.6544L81.5023 43.1955C80.8195 42.6587 80.4658 42.3268 80.4662 42.2506C79.581 41.5858 79.0502 41.126 78.8231 40.8455C78.824 40.6678 78.8756 40.5157 78.9525 40.3892C78.4723 39.955 78.2461 39.5222 78.2483 39.0905L68.8405 31.9064L68.841 31.8049C71.5115 30.9555 73.2676 30.1776 74.109 29.4965C76.5278 28.2396 77.7283 26.8748 77.7359 25.4275C77.7365 25.3006 77.6608 25.224 77.5085 25.1978C77.6653 24.3607 77.7444 23.8025 77.7457 23.5486L77.7476 23.1932C77.4453 22.7345 77.1672 22.5046 76.9387 22.5034C75.7247 21.5829 74.8387 21.0705 74.2553 20.9659L74.3834 20.738L74.3846 20.5095L74.259 20.2549C73.7766 20.2524 73.3193 20.3008 72.8619 20.3746L72.2786 20.2446L68.3163 20.4777C68.3167 20.4016 68.2665 20.2997 68.1912 20.1216L68.3213 19.5383L68.1943 19.5376L67.9653 19.638C67.7072 20.4238 67.3498 20.8028 66.8928 20.8004L67.024 19.9885L67.0264 19.5315L67.2549 19.5327ZM68.6318 23.2724C69.3427 23.2761 69.6994 23.0495 69.7019 22.567C70.2351 22.5698 70.6671 22.4959 70.9726 22.3452C71.2769 22.4229 71.6575 22.4757 72.1399 22.4782L72.1394 22.5798L68.7575 23.5016L68.6306 23.5009L68.6318 23.2724ZM67.1234 25.245C67.1258 24.788 68.1426 24.5648 70.1484 24.5753L70.5039 24.5771C70.9863 24.5797 71.5701 24.6081 72.2553 24.6879L72.2534 25.0433L72.1253 25.2712L72.3785 25.3995L72.4801 25.4L72.8367 25.1733L73.6487 25.2792C73.059 26.3679 72.0891 27.3277 70.7135 28.1837C69.7696 29.0421 68.3454 29.4663 66.3904 29.4561L66.0349 29.4542L65.8059 29.5546C65.8063 29.4784 65.7302 29.4526 65.5779 29.4518C65.5802 29.0202 65.8896 28.1077 66.5314 26.7653C66.5342 26.2321 67.73 25.7814 70.1442 25.3878L70.1454 25.1592C69.6376 25.1566 68.6973 25.304 67.35 25.6016C67.2231 25.601 67.1473 25.5244 67.1227 25.3719L67.1234 25.245ZM65.9291 30.2661C66.2592 30.2679 66.742 30.1942 67.4283 30.0455C67.5803 30.1224 67.7071 30.1485 67.7833 30.1489L67.7826 30.2759C67.1217 30.4247 66.5373 30.4978 66.0295 30.4952L65.9279 30.4947L65.9291 30.2661ZM68.2535 32.4873C69.0899 32.771 69.5708 33.0528 69.6455 33.3325L69.645 33.4341C69.2641 33.4321 68.7832 33.1503 68.2528 32.6143L68.2535 32.4873ZM73.4817 37.7706C73.8372 37.7725 74.5704 38.3603 75.6815 39.5341L75.6808 39.6611C75.2238 39.6587 74.5899 39.503 73.8044 39.1942C73.6815 38.4065 73.5312 38.0248 73.3534 38.0239L73.4817 37.7706ZM59.6678 42.8527C59.6682 42.7765 59.618 42.6747 59.5427 42.4965C59.6987 41.8118 60.0052 41.4579 60.4876 41.4605L60.6146 41.4611C60.6096 42.4006 60.328 42.8561 59.7694 42.8532L59.6678 42.8527ZM93.4914 18.0704C93.4922 17.9181 93.4164 17.8415 93.2642 17.8154C93.0103 17.814 92.4759 18.0397 91.6355 18.5178L91.5086 18.5171C91.5095 18.3394 91.4595 18.1868 91.384 18.0594L91.1555 18.0582C88.1053 18.677 86.1964 19.5557 85.4287 20.6943L84.124 22.5664C83.3346 22.9939 82.3148 23.8011 81.0896 25.0134L81.0879 25.3435C81.087 25.5212 81.1628 25.5978 81.3151 25.5986L81.4167 25.5991L81.6712 25.4735C81.8785 24.6875 82.1851 24.3082 82.5914 24.3103L82.5907 24.4373C82.589 24.7674 82.5112 25.0716 82.3574 25.3501L82.4788 26.4172C82.398 27.3055 82.3448 27.7622 82.3445 27.813C82.4182 28.2958 82.5947 28.5253 82.9248 28.527C84.0616 29.6248 84.8459 30.1621 85.2522 30.1642L85.251 30.3927L85.0206 30.747L85.0194 30.9755C85.0177 31.3056 85.8035 31.5636 87.3516 31.6986C87.5297 31.6234 87.6316 31.5732 87.7077 31.5736C88.4926 32.0093 88.8718 32.316 88.8708 32.5191C88.5359 33.4314 87.5664 34.315 85.9368 35.1952C85.2716 36.1566 84.633 36.8896 84.0463 37.3943C82.4873 39.3413 81.6444 40.3017 81.4666 40.3008C78.9365 43.436 77.0982 45.3815 75.9518 46.1118C75.8248 46.1111 75.749 46.0346 75.7244 45.8821L74.0642 47.7523C73.9596 48.3358 72.7851 49.5738 70.5408 51.4664C70.5419 51.2632 70.5173 51.1108 70.4418 50.9834C70.5186 50.8569 70.5448 50.7047 70.5458 50.5269L70.5464 50.4L70.3179 50.3988C70.3172 50.5257 69.9578 51.2856 69.2652 52.6277C69.3656 52.8567 69.4665 52.9842 69.5934 52.9849L69.8473 52.9862L73.2426 49.5C73.4457 49.5011 73.7245 49.6041 74.0533 49.8343C75.3526 49.0032 76.1682 48.4235 76.5254 48.0953C76.5263 47.9176 76.4763 47.765 76.4008 47.6376C76.402 47.4091 77.2698 46.5504 78.9786 45.0866L79.2326 45.088C79.2308 45.418 78.7201 45.974 77.7006 46.705L77.6994 46.9335L77.801 46.934L78.6419 46.3544C80.6591 44.2067 81.9597 43.1217 82.4929 43.1245L82.4923 43.2261C81.9569 43.6549 81.6761 43.9328 81.6756 44.0343C80.371 45.881 79.0171 47.4482 77.5633 48.6847L77.562 48.9386C77.5612 49.091 77.637 49.1676 77.7893 49.1683C79.0915 47.7787 80.1641 46.5909 80.9821 45.5542C82.8995 43.0505 84.6108 41.1297 86.1415 39.7412C87.9486 38.9128 89.4014 37.854 90.4743 36.6155C92.283 35.4823 93.1783 34.2175 93.1859 32.7702C93.186 32.7448 93.1359 32.6176 93.0608 32.4141C93.1379 32.2368 93.1892 32.1355 93.1895 32.0847C93.1963 30.7898 91.3244 29.4343 87.5991 28.069C87.0666 27.9393 86.5626 27.2003 86.0873 25.8521C86.5492 24.9151 86.9071 24.4599 87.161 24.4612C87.1606 24.5374 87.1858 24.5629 87.262 24.5633L87.389 24.564L87.8496 23.8808C88.2829 23.553 88.9703 23.2011 89.861 22.8249C90.0133 22.8257 90.292 22.9542 90.6716 23.1847C90.697 23.1848 90.8242 23.1347 91.0277 23.0596L91.0271 23.1865C91.2302 23.1876 91.4591 23.1126 91.7138 22.9616C91.8662 22.9624 91.9419 23.039 91.9411 23.1913C93.0341 22.9685 94.1276 22.6442 95.2219 22.1675C97.0276 21.6183 97.9182 21.2421 97.9194 21.0136L97.9207 20.7597L97.795 20.5305C97.4903 20.5289 97.134 20.6794 96.7515 21.0075L93.9537 21.9069C93.7514 21.7535 93.5995 21.6765 93.4725 21.6759L93.4737 21.4474L93.8292 21.4492C94.0831 21.4505 94.2865 21.4008 94.4138 21.3253C94.8982 20.947 95.7894 20.4692 97.1125 19.943L97.925 19.9472C98.0773 19.948 98.1539 19.8722 98.1547 19.7199L98.1559 19.4914C98.1567 19.339 98.0048 19.2621 97.7001 19.2605L97.8054 18.5501C97.8068 18.2708 97.4269 18.0911 96.6405 17.96C95.5741 17.9544 94.3285 18.2272 92.9038 18.7529C92.9042 18.6768 92.879 18.6512 92.8028 18.6508L93.4909 18.172L93.4914 18.0704ZM85.6547 21.1779C86.0127 20.6973 86.2424 20.47 86.3694 20.4707C87.237 19.6373 88.7127 19.0611 90.7964 18.7419L90.9234 18.7426C90.9226 18.8949 90.7699 18.9703 90.4652 18.9687C89.7289 18.9648 88.1504 19.7691 85.7805 21.4071L85.6535 21.4064L85.6547 21.1779ZM84.8019 28.8669C84.9787 29.0456 85.1307 29.1225 85.2576 29.1232L85.2564 29.3517L84.8013 28.9938L84.8019 28.8669ZM90.5092 29.9632C90.6615 29.964 90.7373 30.0406 90.7365 30.1929L90.508 30.1917C90.381 30.191 90.3052 30.1145 90.2807 29.962L90.5092 29.9632ZM88.7506 31.2235C88.9784 31.3517 89.1047 31.4793 89.1042 31.5809C88.7236 31.5281 88.5211 31.4001 88.5221 31.2223L88.7506 31.2235ZM90.274 31.2315L90.731 31.2339L90.7292 31.5894L90.2727 31.4854L90.274 31.2315ZM91.0675 34.8666C91.0697 34.4349 91.378 33.751 92.018 32.7641L92.1449 32.7648L92.1393 33.8312C91.8055 34.5404 91.5242 34.9198 91.2953 34.9947L91.0668 34.9935L91.0675 34.8666ZM89.552 33.3352L89.8059 33.3365L89.8041 33.692L89.5502 33.6907L89.552 33.3352ZM87.0986 36.3693C88.271 35.5375 88.8838 34.8805 88.9625 34.3985L89.2159 34.5014C88.8305 35.3627 88.4728 35.7925 88.1427 35.7907C87.1467 36.8773 86.6108 37.4077 86.5092 37.4072L86.3822 37.4065L86.3828 37.305L87.0986 36.3693ZM83.346 40.209C83.4488 39.9811 83.551 39.8546 83.678 39.8553L83.6774 39.9569C83.5493 40.1847 83.4217 40.311 83.3455 40.3106L83.346 40.209ZM82.2735 41.3714C82.2746 41.1683 82.25 41.0158 82.1745 40.8885L82.5058 40.6617L83.0897 40.6647C82.8079 41.1457 82.629 41.3733 82.502 41.3726L82.2735 41.3714ZM81.5868 41.5963C81.5875 41.4694 81.664 41.3936 81.8165 41.369L82.172 41.3709C81.9673 41.6745 81.8141 41.826 81.6872 41.8254L81.5856 41.8248L81.5868 41.5963ZM80.9955 42.9897C80.8178 42.9888 80.6398 43.0387 80.5124 43.1142C80.513 43.0126 80.4882 42.8855 80.4127 42.7582L80.6419 42.6324L80.7435 42.6329C80.9212 42.6339 80.997 42.7104 80.9962 42.8628L80.9955 42.9897ZM78.7544 44.2729L78.8813 44.2736C79.3163 43.6411 79.6987 43.3384 80.0542 43.3403L80.1558 43.3408L80.1546 43.5693C79.9515 43.5683 79.5686 43.9471 78.9805 44.7312C78.8536 44.7305 78.7778 44.6539 78.7532 44.5015L78.7544 44.2729ZM80.6351 43.9273C80.6358 43.8004 80.7124 43.7246 80.8648 43.7L80.9918 43.7007C80.991 43.853 80.9144 43.9288 80.7367 43.9279L80.6351 43.9273ZM79.2332 44.961C79.4125 44.6573 79.5657 44.5057 79.6926 44.5064L79.9211 44.5076L79.9188 44.9646L79.2332 44.961ZM78.2919 45.3116C78.1125 45.6407 77.9083 45.8428 77.7049 45.8925C77.7053 45.8163 77.5786 45.7649 77.3501 45.7637C77.3518 45.4336 77.6574 45.2574 78.2926 45.1846L78.2919 45.3116ZM74.2873 48.7945L75.1252 48.7989L75.1245 48.9259C75.0229 48.9253 74.7429 49.0762 74.2842 49.3785C74.2846 49.3023 74.2595 49.2514 74.1833 49.251L74.2873 48.7945ZM100.433 16.2533C100.435 15.8216 100.284 15.5669 99.9799 15.4384L99.6232 15.665C99.2097 17.0594 98.9013 17.7687 98.6727 17.7675L97.2763 17.7602C94.3787 18.329 92.8274 18.8033 92.5972 19.1322C92.521 19.1318 92.4703 19.1061 92.4707 19.03C92.2676 19.0289 91.7334 19.2292 90.8427 19.6054L90.1331 19.3478C89.8024 19.473 89.5728 19.675 89.4445 19.9282L89.4432 20.1821L89.7962 20.641L90.3809 20.5171C90.5332 20.5179 90.609 20.5945 90.6081 20.7722C89.9721 20.9974 89.6665 21.1735 89.6656 21.3512L89.6632 21.8083C89.6624 21.9606 89.7382 22.0372 89.8905 22.038L90.0174 22.0386C90.5514 21.8891 90.8819 21.8147 90.9581 21.815C91.1104 21.8158 91.4909 21.894 92.1248 22.0497C91.5647 22.3514 91.2843 22.5531 91.2839 22.6293C91.4353 22.8078 91.5616 22.9354 91.6372 23.0374C91.7129 23.1393 91.7634 23.1904 91.7633 23.2158L96.897 22.3032C97.2264 22.4319 97.3782 22.5342 97.3776 22.6612C97.3772 22.7373 97.3261 22.7879 97.25 22.7875C96.9385 24.0808 96.7061 24.8159 96.5275 24.9927L95.5895 29.5582C95.5826 30.8785 95.3487 31.8929 94.8627 32.5759C93.9945 33.5108 93.5593 34.1941 93.5568 34.6765C93.556 34.8288 93.6318 34.9054 93.8095 34.9063L93.9111 34.9069L94.3953 34.5539L94.3935 34.9094C94.1067 36.3298 93.8229 37.1916 93.5422 37.4694C93.5412 37.6472 93.5911 37.8251 93.6666 37.9525L93.2041 38.9911C93.2029 39.2196 93.3546 39.3474 93.6593 39.349C93.6554 40.0853 93.5258 40.5924 93.2958 40.8705L93.4216 41.0997L93.0607 42.1388L93.06 42.2658L93.187 42.2665C93.4663 42.2679 93.6463 41.8372 93.7777 40.9746L94.2348 40.977C94.0033 41.5344 93.8745 41.8892 93.8737 42.0415C93.8728 42.2193 93.9228 42.3719 93.9983 42.4992C93.663 43.4877 93.5072 44.1471 93.5055 44.4771C93.0417 45.7696 92.4266 46.8582 91.6348 47.7428C91.6344 47.8189 91.6596 47.8699 91.7357 47.8703C91.5536 48.7072 91.3986 49.2142 91.2707 49.3913L91.2702 49.4928L91.4969 49.8495L91.9811 49.4966C92.1131 48.5324 92.2935 48.0255 92.5731 47.9762L93.0282 48.3341L92.0594 53.9404L92.0552 54.7529C92.0544 54.9052 92.1301 54.9818 92.2825 54.9826C92.6126 54.9843 92.8477 53.716 93.0135 51.1524C93.5213 51.155 93.8835 49.862 94.0747 47.2985L93.9743 47.0695L94.0759 47.07C94.3122 45.5732 94.7477 44.8391 95.3825 44.8424C96.0765 43.2211 97.1891 39.2659 98.7202 32.9515L98.5944 32.7224C99.0847 31.2269 99.3964 29.8828 99.5548 28.741L100.61 25.9535C100.534 25.9531 100.509 25.9022 100.509 25.8261L100.739 25.5987C100.747 24.1007 101.135 22.6808 101.93 21.2885L103.326 21.2958C103.479 21.2966 103.555 21.2208 103.556 21.0685C103.557 20.8908 103.329 20.7626 102.872 20.7094L102.643 20.8352L102.644 20.5813C104.805 20.1356 106.38 19.9153 107.32 19.9202L107.65 19.922C108.183 19.9247 108.843 19.9536 109.655 20.034C109.656 19.8309 109.961 19.7309 110.571 19.7087C110.749 19.7097 111.281 19.7886 112.22 19.9459C112.449 19.9471 112.602 19.7448 112.68 19.3643C112.452 19.2362 112.326 19.1085 112.327 19.007L112.327 18.88C112.429 18.8806 112.556 18.8558 112.683 18.7803C112.683 18.8565 112.734 18.8821 112.81 18.8825L112.911 18.8831L113.268 18.6564L114.334 18.662L114.563 18.5616L114.563 18.6632C115.097 18.4883 115.758 18.3902 116.545 18.3181C116.672 18.395 116.875 18.4468 117.128 18.4481L117.585 18.4505L117.709 19.0352L117.938 19.0364C118.269 18.8604 118.422 18.7088 118.423 18.5819L118.424 18.328C118.298 18.0988 118.197 17.9967 118.07 17.996L117.486 17.993C117.258 17.9918 116.903 17.9391 116.421 17.8604C116.242 17.9357 116.141 17.9859 116.09 17.9856L115.608 17.8562C114.846 17.9284 114.134 18.0262 113.499 18.2006L113.5 17.9721C115.533 17.6019 116.551 17.1756 116.554 16.6931L116.554 16.5662C116.429 16.337 116.327 16.2349 116.201 16.2343L115.972 16.2331C115.97 16.5885 115.512 16.8908 114.571 17.1398L114.571 17.0382C113.86 17.1869 113.351 17.2604 113.047 17.2588L112.463 17.1288L112.335 17.382C111.218 17.4015 110.227 17.4217 109.339 17.4425C108.602 17.464 107.993 17.4608 107.561 17.4586C107.434 17.4579 107.359 17.3052 107.335 17.0003L107.336 16.8734C106.09 17.2477 104.591 17.443 102.889 17.4341L102.66 17.5599L102.661 17.4329C102.509 17.4321 102.229 17.5068 101.822 17.657C101.822 17.5809 101.746 17.5551 101.594 17.5543L101.596 17.1988C101.878 16.7179 102.056 16.4903 102.183 16.4909C102.186 15.907 102.036 15.5507 101.732 15.4475C101.401 15.5728 101.068 16.1296 100.784 17.0676L100.327 17.0652L100.433 16.2533ZM112.229 18.2955C112.229 18.1686 112.306 18.0928 112.458 18.0682L112.585 18.0689C112.738 18.0697 112.814 18.1462 112.813 18.2986L112.229 18.2955ZM107.071 18.8525L107.427 18.8544L107.426 18.9813L107.071 18.9795L107.071 18.8525ZM108.493 18.9869L108.365 19.2147C108.238 19.2141 108.162 19.1375 108.137 18.985L108.493 18.9869ZM108.721 18.9881L109.077 18.99C109.076 19.1423 108.999 19.2181 108.822 19.2171L108.72 19.2166L108.721 18.9881ZM110.472 19.2258C110.473 19.0988 110.549 19.0231 110.702 18.9985L110.7 19.227L110.472 19.2258ZM111.057 19.0003L111.87 19.0046L111.869 19.1315C111.59 19.1301 111.336 19.1541 111.056 19.2288L111.057 19.0003ZM109.406 19.1186L109.762 19.1205L109.761 19.2221L109.406 19.2202L109.406 19.1186ZM93.8914 19.2659C93.9422 19.2662 94.044 19.2159 94.2221 19.1407L94.3491 19.1414L94.3479 19.3699L93.8909 19.3675L93.8914 19.2659ZM97.6745 28.9851L98.03 28.9869L98.0283 29.317C98.0273 29.4947 97.9508 29.5705 97.7984 29.5697L97.6715 29.5691L97.6745 28.9851ZM97.3378 30.2529C97.3385 30.1259 97.4151 30.0501 97.5675 30.0256L97.796 30.0267C97.7954 30.1537 97.7181 30.3564 97.5645 30.6095C97.4375 30.6089 97.3617 30.5323 97.3372 30.3798L97.3378 30.2529ZM97.5633 30.838L97.5607 31.3205C97.56 31.4728 97.4834 31.5486 97.331 31.5478L97.2041 31.5471C97.2045 31.4709 97.1542 31.3691 97.079 31.191C97.2567 31.1919 97.3336 31.0654 97.3348 30.8368L97.5633 30.838ZM95.1968 36.6656L95.5523 36.6674C95.5495 37.2006 95.3945 37.7076 95.0619 38.1883C95.0609 38.3661 95.1109 38.5187 95.1864 38.646L95.1846 39.0015C94.8484 40.1677 94.4899 40.7498 94.109 40.7478L93.8805 40.7466L93.881 40.6451L95.1968 36.6656ZM94.4821 37.3728C94.4817 37.4489 94.4562 37.4742 94.38 37.4738C94.3795 37.5754 94.4042 37.7025 94.4797 37.8298L94.3739 38.6418L94.0185 38.6399C94.0194 38.4622 93.9694 38.3096 93.8939 38.1822C93.9955 38.1827 94.0731 37.9038 94.1267 37.3709L94.4821 37.3728ZM93.1858 42.495C92.9573 42.4938 92.7521 42.8736 92.5957 43.6599L92.9258 43.6616L93.2873 42.4955L93.1858 42.495ZM92.3381 44.3695L92.3369 44.598L92.4638 44.5986L92.465 44.3701L92.3381 44.3695ZM92.2341 44.826L92.1072 44.8253C92.1057 45.1046 91.7968 45.9155 91.1548 47.2832L90.3301 49.6149L90.3282 49.9703L90.5567 49.9715C90.5593 49.4891 90.6366 49.261 90.8144 49.2619C91.4304 47.9956 91.9455 46.6018 92.3345 45.055L92.2341 44.826ZM107.93 19.7457C108.268 18.1986 108.527 17.3113 108.655 17.058C108.326 16.8786 108.174 16.7254 108.175 16.5985C107.844 16.8507 107.536 17.4584 107.251 18.4472C106.692 18.5458 106.412 18.7475 106.41 19.0268C105.876 19.3033 105.595 19.5049 105.595 19.6065L104.782 19.6022C104.554 19.6518 104.425 19.9305 104.423 20.4129C103.883 21.5526 103.599 22.516 103.595 23.3285L103.239 23.3266L102.656 23.222C101.69 23.4455 100.824 23.9488 100.084 24.732L100.083 24.8336C100.209 25.0627 100.335 25.1904 100.437 25.1909C100.843 25.193 101.784 24.8933 103.234 24.2661C103.234 24.3423 103.361 24.3937 103.589 24.3949L103.587 24.7504C103.586 24.9789 103.458 25.2829 103.227 25.6625L103.352 26.1456C103.273 26.6276 102.991 27.0832 102.532 27.5378L102.531 27.6648L102.859 28.1235L102.858 28.3521C102.854 28.9868 102.573 29.29 102.04 29.2872L101.686 29.0569L101.356 29.0551C101.127 29.1809 100.999 29.3072 100.999 29.4087C101.174 29.7905 101.376 29.9947 101.579 29.9958L101.451 30.2236C100.563 30.1428 99.8783 29.9869 99.3464 29.7302L99.1173 29.8559L99.596 30.5694C99.1897 30.5673 98.9607 30.6676 98.8833 30.8957L98.8826 31.0227C99.3871 31.6601 100.196 32.2737 101.336 32.9145C101.335 33.1176 100.948 34.2835 100.149 36.4122C100.198 36.7933 100.299 36.997 100.476 36.9979C99.7799 39.0763 99.4173 40.4455 99.414 41.0803C98.9018 41.9155 98.5165 42.7514 98.2326 43.6386C97.4408 44.5231 97.0567 45.1559 97.0549 45.486C97.1311 45.4864 97.1816 45.5374 97.1812 45.6136L98.2246 45.162C98.6644 43.6155 98.9222 42.8551 99.0493 42.8304L99.2778 42.8316L99.8613 42.9362C99.8572 43.7233 99.3894 45.7775 98.4324 49.1241L98.5581 49.3533C98.4312 49.3526 98.354 49.5553 98.3266 49.936L98.4269 50.1651C98.8332 50.1672 99.2733 48.5445 99.7475 45.2715C100.92 44.4652 101.506 43.935 101.508 43.6557C102.515 40.4618 103.34 38.0793 103.983 36.5338C104.294 35.3675 104.525 34.7847 104.703 34.7856L104.83 34.7863C107.313 35.688 108.554 36.38 108.551 36.9132C109.511 37.9339 111.256 39.238 113.787 40.8001C115.685 42.0288 117.127 43.0012 118.088 43.7426C119.278 44.4343 120.339 45.354 121.222 46.4504C121.929 47.1397 122.283 47.5478 122.282 47.7255C122.434 47.7263 122.511 47.6505 122.512 47.4982L122.032 46.9117L122.033 46.7847C122.261 46.7859 122.667 46.9912 123.198 47.3748L126.816 49.8567C127.045 49.7309 127.172 49.6047 127.173 49.5031L127.176 48.9191C126.293 47.8735 125.737 47.312 125.534 47.2855L125.305 47.3859C125.836 47.9219 126.113 48.2534 126.113 48.3296L126.112 48.5581C126.01 48.5575 125.706 48.4798 125.199 48.3248C124.289 47.5075 123.555 46.9958 122.972 46.7897L119.837 44.3357L120.067 43.9814L120.071 43.2705C119.058 42.7066 118.552 42.3485 118.553 42.2215L118.555 41.7645C118.936 41.7665 120.125 42.636 122.173 44.3479L122.3 44.3486C122.452 44.3494 122.528 44.2736 122.529 44.1213L122.531 43.8674L122.177 43.4085C121.495 42.8717 121.141 42.5398 121.141 42.4636C120.256 41.7988 119.725 41.339 119.498 41.0585C119.499 40.8808 119.551 40.7287 119.628 40.6021C119.148 40.168 118.921 39.7351 118.924 39.3035L109.516 32.1194L109.516 32.0178C112.187 31.1685 113.943 30.3906 114.784 29.7094C117.203 28.4526 118.404 27.0877 118.411 25.6405C118.412 25.5135 118.336 25.437 118.184 25.4108C118.341 24.5737 118.42 24.0155 118.421 23.7616L118.423 23.4061C118.12 22.9475 117.842 22.7175 117.614 22.7163C116.4 21.7959 115.514 21.2835 114.93 21.1788L115.059 20.951L115.06 20.7225L114.934 20.4679C114.452 20.4654 113.995 20.5138 113.537 20.5876L112.954 20.4575L108.992 20.6907C108.992 20.6145 108.942 20.5127 108.866 20.3346L108.996 19.7513L108.87 19.7506L108.64 19.851C108.382 20.6367 108.025 21.0157 107.568 21.0133L107.699 20.2015L107.702 19.7445L107.93 19.7457ZM109.307 23.4854C110.018 23.4891 110.375 23.2624 110.377 22.78C110.91 22.7828 111.342 22.7089 111.648 22.5582C111.952 22.6359 112.333 22.6887 112.815 22.6912L112.815 22.7928L109.433 23.7145L109.306 23.7139L109.307 23.4854ZM107.799 25.458C107.801 25.0009 108.818 24.7777 110.824 24.7882L111.179 24.7901C111.662 24.7926 112.245 24.8211 112.931 24.9008L112.929 25.2563L112.801 25.4842L113.054 25.6124L113.155 25.613L113.512 25.3863L114.324 25.4921C113.734 26.5809 112.764 27.5406 111.389 28.3967C110.445 29.2551 109.021 29.6793 107.066 29.669L106.71 29.6672L106.481 29.7675C106.482 29.6914 106.405 29.6656 106.253 29.6648C106.255 29.2331 106.565 28.3207 107.207 26.9783C107.209 26.4451 108.405 25.9943 110.819 25.6007L110.821 25.3722C110.313 25.3696 109.373 25.517 108.025 25.8146C107.898 25.814 107.823 25.7374 107.798 25.5849L107.799 25.458ZM106.604 30.4791C106.934 30.4809 107.417 30.4072 108.104 30.2585C108.256 30.3354 108.382 30.3615 108.458 30.3619L108.458 30.4888C107.797 30.6377 107.213 30.7108 106.705 30.7082L106.603 30.7076L106.604 30.4791ZM108.929 32.7003C109.765 32.984 110.246 33.2658 110.321 33.5455L110.32 33.6471C109.939 33.6451 109.458 33.3632 108.928 32.8273L108.929 32.7003ZM114.157 37.9836C114.512 37.9855 115.246 38.5733 116.357 39.7471L116.356 39.8741C115.899 39.8717 115.265 39.716 114.48 39.4072C114.357 38.6194 114.206 38.2378 114.029 38.2369L114.157 37.9836ZM100.343 43.0657C100.343 42.9895 100.293 42.8877 100.218 42.7095C100.374 42.0248 100.68 41.6709 101.163 41.6734L101.29 41.6741C101.285 42.6135 101.003 43.0691 100.445 43.0662L100.343 43.0657ZM122.408 18.7551C122.409 18.6281 122.333 18.5515 122.181 18.5254L121.105 20.3987L121.23 20.6278C120.949 21.1088 120.643 21.3357 120.287 21.3338C120.054 22.1705 119.646 22.6 119.113 22.5972L118.986 22.5966C118.3 22.593 117.945 22.4388 117.947 22.1341L117.363 22.131C117.362 22.3596 117.234 22.5874 117.004 22.8147L117.003 22.9417L117.711 23.5294C117.737 23.5295 117.864 23.4794 118.067 23.4043C118.397 23.4822 118.701 23.5346 118.981 23.536L118.878 23.764L118.066 23.6582L117.939 23.6575L117.71 23.7579L117.805 24.9264C115.646 25.1944 114.552 25.5187 114.551 25.8488C114.55 25.9504 114.575 26.0774 114.65 26.2048L117.116 25.7353L117.344 25.8634L117.7 25.6368L118.056 25.6386L118.054 25.8671C117.038 26.0396 116.376 26.3916 116.043 26.8976L116.042 27.0246L116.396 27.4835C116.7 27.4851 117.438 27.2096 118.634 26.6827L118.862 26.8108C118.732 27.4703 118.525 28.1294 118.268 28.7882L117.198 29.3666L117.322 29.9512L117.551 29.8255L117.678 29.8262L117.906 29.9543C117.753 30.1566 117.676 30.3086 117.675 30.4101L117.32 30.4083L117.322 29.9512C116.838 30.1772 116.456 30.4799 116.149 30.8846L116.148 31.1131L116.375 31.4697L116.374 31.5713C116.069 31.6205 115.916 31.7466 115.915 31.9244L115.914 32.1529C115.913 32.3306 115.989 32.4072 116.141 32.408L116.37 32.2822C116.37 32.3584 116.598 32.4866 117.079 32.6414L116.847 33.3258C116.049 35.4544 115.662 36.6712 115.66 36.9505C114.961 39.5621 114.471 41.0322 114.215 41.3863C113.223 41.7366 112.713 42.191 112.71 42.7749C111.311 43.1993 110.395 43.6007 110.012 43.9288L110.113 44.1578C110.037 44.1574 110.011 44.2081 110.011 44.2843C109.934 44.2839 109.833 44.2325 109.656 44.1554C109.402 44.1541 109.197 44.5085 109.066 45.2188L109.295 45.22C109.371 45.2204 109.422 45.1699 109.422 45.0937C110.311 45.0983 110.972 44.8987 111.406 44.5201C111.584 44.3941 112.195 44.1433 113.288 43.819L113.39 43.8195L112.8 44.9844L112.799 45.1114C112.825 45.1115 112.977 45.0615 113.282 44.9869C113.642 44.1001 114 43.6196 114.331 43.5959L114.559 43.5971L113.741 44.6593C112.787 47.4727 111.914 49.2201 111.149 49.9016L111.147 50.2317L111.503 50.2336C112.477 48.4613 113.015 47.5754 113.142 47.5761C113.141 47.83 113.19 48.0334 113.266 48.1607C113.139 48.1601 113.037 48.2357 113.011 48.3879L113.009 48.7434L113.261 49.0748L113.49 48.9744C114.084 47.0986 114.65 45.7051 115.137 44.7681L115.264 44.7688L115.262 45.1243C115.261 45.3528 115.184 45.5809 115.03 45.834C115.054 46.0626 115.078 46.2913 115.103 46.4692C115.127 46.5962 115.127 46.6978 115.127 46.7486L114.659 48.752L114.887 48.8548L115.244 48.6281C115.48 47.0805 115.713 46.2946 115.942 46.2958C116.373 46.2981 116.886 45.3359 117.48 43.3839C117.483 42.9523 118.196 42.5497 119.594 42.227C122.567 41.8109 124.041 41.4378 124.043 41.0823C124.73 40.8574 125.088 40.453 125.09 39.9198L125.674 40.0498C125.801 40.0505 126.158 39.773 126.744 39.2175L127.43 39.2211L128.597 39.3542C128.598 39.278 128.649 39.2275 128.725 39.2279C128.724 39.4056 128.8 39.4822 128.952 39.483C129.104 39.4838 129.181 39.408 129.182 39.2303L129.182 39.1287L128.829 38.6444C128.779 38.6442 128.677 38.6944 128.499 38.7697C128.372 38.6928 128.195 38.6411 128.017 38.6402L126.849 38.6341C126.672 38.4808 126.52 38.4038 126.393 38.4032L126.394 38.3016C126.571 38.3025 126.724 38.2525 126.851 38.177L127.079 38.3052C127.308 38.1794 127.436 38.0531 127.437 37.9516C127.437 37.8246 127.361 37.7481 127.209 37.7219L127.082 37.7212L124.414 38.1643L123.831 38.0343C123.297 38.2092 122.839 38.283 122.407 38.2807L122.079 38.0251L121.952 38.0244L119.611 38.8501L119.485 38.8494L119.257 38.7213C120.289 35.6036 120.883 33.5754 121.04 32.6622C121.044 32.0274 122.571 31.2737 125.623 30.3502C128.088 29.9822 129.384 29.6843 129.462 29.4308C129.463 29.2785 129.361 29.2018 129.133 29.2006C129.744 28.8737 130.05 28.6214 130.051 28.4944C131.296 28.2724 131.932 28.0726 131.933 27.9203L131.934 27.6918C131.377 27.3588 131.074 27.0271 130.999 26.7474L130.898 26.7469C130.058 27.0726 128.787 27.3706 127.135 27.6667C126.959 27.2849 126.757 27.0807 126.554 27.0796C126.478 27.0792 126.452 27.1299 126.452 27.206C124.52 27.6784 123.426 28.0281 123.171 28.2299C123.044 28.1531 122.892 28.1015 122.715 28.1006L122.131 28.0975L122.133 27.6405C122.366 26.8546 122.47 26.3981 122.47 26.2457C122.474 25.5856 124.965 25.0146 129.97 24.533L130.198 24.6358C130.859 24.5123 131.748 24.39 132.891 24.3198L132.892 24.0659C132.258 23.9356 131.573 23.8051 130.787 23.7248C130.788 23.3693 131.755 23.0697 133.711 22.8006C133.838 22.8775 133.99 22.9037 134.168 22.9046L134.295 22.9053C134.652 22.6024 134.932 22.4516 135.11 22.4525L135.693 22.5825L136.05 22.2289L136.051 22.1019C136.052 21.975 135.9 21.8726 135.596 21.7441C135.443 21.7433 135.367 21.8191 135.341 21.9967L134.656 21.8661C134.483 20.9257 133.952 20.4659 133.013 20.461C133.011 20.7149 132.274 20.9142 130.801 21.0334C130.801 20.9572 130.751 20.9062 130.674 20.9058C130.547 20.9813 130.394 21.0313 130.217 21.0304L129.988 21.0292L129.406 20.6706C126.075 21.5165 124.093 21.9378 123.433 21.9343L123.204 21.9331L123.207 21.3491L123.081 21.0946L122.497 21.2185C122.168 20.9882 121.889 20.8598 121.686 20.8587L121.687 20.7572L122.408 18.7551ZM133.006 21.7305L133.26 21.7319L133.843 21.8619L133.843 21.9888C133.563 21.9873 133.284 22.0113 133.004 22.086L133.006 21.7305ZM118.157 25.7407C118.157 25.6138 118.234 25.538 118.386 25.5134L118.742 25.5153C118.741 25.6168 118.588 25.743 118.283 25.8683L118.156 25.8677L118.157 25.7407ZM129.013 27.8034L129.242 27.8046L129.47 27.9074C129.469 28.0597 129.392 28.1355 129.24 28.1347C129.113 28.1341 129.037 28.0575 129.013 27.905L129.013 27.8034ZM126.445 28.4756C126.446 28.3486 126.878 28.2747 127.716 28.2537L127.843 28.2544L127.842 28.3813C127.003 28.6054 126.418 28.8309 126.087 29.0577L125.96 29.057L126.445 28.4756ZM121.996 29.5187C121.997 29.3917 122.455 29.2418 123.395 29.0436L123.394 29.2721C122.911 29.3457 122.53 29.4453 122.224 29.6214L121.996 29.5187ZM120.095 33.6982C120.096 33.5205 120.072 33.368 119.996 33.2407C120.202 32.7086 120.356 32.4301 120.458 32.4306L120.686 32.5333C120.455 32.8622 120.352 33.2679 120.349 33.6996L120.095 33.6982ZM119.99 34.4086L120.219 34.4098L120.218 34.5114L119.99 34.5102L119.99 34.4086ZM117.999 36.3787L118.101 36.3792L118.099 36.7347L117.998 36.7342L117.999 36.3787ZM117.996 37.0896L117.866 37.546L117.638 37.4179C117.715 37.2913 117.741 37.1645 117.742 37.0883L117.996 37.0896ZM119.265 37.1978L119.264 37.3248C119.21 37.8577 119.082 38.1364 118.904 38.1354L118.906 37.78C119.085 37.6032 119.162 37.4258 119.163 37.1973L119.265 37.1978ZM117.046 39.0652C117.432 38.1277 117.663 37.6719 117.739 37.6723L117.738 37.9008C117.632 38.7381 117.477 39.169 117.274 39.1679L117.045 39.1667L117.046 39.0652ZM125.225 38.524L125.581 38.2973L125.683 38.2979C125.835 38.2987 125.911 38.3752 125.91 38.5276C125.224 38.6256 124.741 38.6992 124.512 38.7488L124.514 38.5203C124.691 38.5212 124.869 38.4714 124.997 38.3958C124.996 38.472 125.021 38.5229 125.098 38.5233L125.225 38.524ZM118.675 38.3627L118.903 38.3639L118.799 38.8458L118.672 38.8452L118.675 38.3627ZM121.234 39.3156C121.235 39.1379 122.125 38.914 123.929 38.6188L124.055 38.8733C123.928 38.8727 122.987 39.0709 121.233 39.4426L121.234 39.3156ZM123.692 40.2679L124.403 40.2717L124.402 40.3732C124.225 40.3723 123.945 40.4216 123.564 40.4958L123.692 40.2679ZM122.293 40.7177C122.572 40.7191 122.801 40.6441 122.98 40.4927L123.335 40.4946C123.335 40.6469 123.105 40.7727 122.648 40.8465L122.292 40.8446L122.293 40.7177ZM115.496 44.0845L115.623 44.0851L115.622 44.3136L115.495 44.313L115.496 44.0845ZM114.323 45.1193L114.193 45.5757L113.965 45.4729C114.042 45.2956 114.094 45.1943 114.094 45.1182L114.323 45.1193ZM112.926 45.239L112.441 45.6935C112.388 46.0741 112.183 46.3777 111.852 46.6299L111.85 46.9853L111.976 47.2145C112.357 47.2165 112.715 46.6344 113.026 45.468L112.926 45.239ZM113.863 45.7009L114.091 45.7021C114.09 45.8545 114.014 45.9302 113.861 45.9294L113.863 45.7009ZM134.291 18.8173C134.291 18.6903 134.216 18.6138 134.063 18.5876L132.987 20.4609L133.113 20.6901C132.831 21.171 132.525 21.3979 132.17 21.3961C131.937 22.2327 131.528 22.6623 130.995 22.6595L130.868 22.6588C130.183 22.6552 129.828 22.501 129.83 22.1963L129.246 22.1933C129.244 22.4218 129.116 22.6496 128.887 22.8769L128.886 23.0039L129.594 23.5916C129.619 23.5917 129.746 23.5416 129.95 23.4665C130.28 23.5444 130.584 23.5968 130.863 23.5982L130.761 23.8262L129.949 23.7204L129.822 23.7197L129.593 23.8201L129.688 24.9886C127.528 25.2566 126.435 25.5809 126.433 25.911C126.433 26.0126 126.457 26.1397 126.533 26.267L128.998 25.7975L129.226 25.9256L129.583 25.699L129.938 25.7008L129.937 25.9294C128.921 26.1018 128.259 26.4538 127.926 26.9599L127.925 27.0868L128.278 27.5457C128.583 27.5473 129.321 27.2718 130.517 26.7449L130.745 26.873C130.614 27.5325 130.408 28.1916 130.15 28.8504L129.081 29.4288L129.205 30.0135L129.434 29.8877L129.561 29.8884L129.789 30.0165C129.635 30.2188 129.558 30.3708 129.558 30.4724L129.202 30.4705L129.205 30.0135C128.721 30.2395 128.339 30.5421 128.032 30.9468L128.031 31.1753L128.257 31.532L128.257 31.6335C127.952 31.6827 127.799 31.8089 127.798 31.9866L127.797 32.2151C127.796 32.3928 127.872 32.4694 128.024 32.4702L128.253 32.3445C128.253 32.4206 128.481 32.5488 128.962 32.7036L128.73 33.388C127.932 35.5166 127.545 36.7334 127.543 37.0127C126.844 39.6243 126.354 41.0944 126.098 41.4485C125.106 41.7988 124.596 42.2532 124.593 42.8372C123.194 43.2615 122.278 43.6629 121.895 43.991L121.995 44.2201C121.919 44.2197 121.894 44.2703 121.893 44.3465C121.817 44.3461 121.716 44.2948 121.538 44.2177C121.285 44.2163 121.08 44.5707 120.949 45.281L121.177 45.2822C121.254 45.2826 121.305 45.2321 121.305 45.1559C122.194 45.1606 122.855 44.9609 123.289 44.5823C123.467 44.4563 124.078 44.2056 125.171 43.8812L125.273 43.8817L124.683 45.0466L124.682 45.1736C124.707 45.1737 124.86 45.1237 125.165 45.0492C125.525 44.1624 125.883 43.6818 126.213 43.6581L126.442 43.6593L125.624 44.7215C124.67 47.5349 123.797 49.2823 123.032 49.9638L123.03 50.2939L123.386 50.2958C124.36 48.5235 124.898 47.6376 125.025 47.6383C125.023 47.8922 125.073 48.0956 125.148 48.2229C125.021 48.2223 124.919 48.2979 124.893 48.4501L124.891 48.8056L125.144 49.137L125.373 49.0366C125.966 47.1608 126.532 45.7673 127.02 44.8304L127.147 44.831L127.145 45.1865C127.144 45.415 127.066 45.6431 126.913 45.8962C126.937 46.1249 126.961 46.3535 126.985 46.5314C127.01 46.6585 127.01 46.76 127.009 46.8108L126.542 48.8142L126.77 48.917L127.126 48.6903C127.363 47.1427 127.596 46.3568 127.824 46.358C128.256 46.3603 128.769 45.3981 129.363 43.4461C129.365 43.0145 130.078 42.612 131.476 42.2892C134.449 41.8731 135.924 41.5 135.926 41.1445C136.613 40.9196 136.97 40.5152 136.973 39.982L137.556 40.112C137.683 40.1127 138.04 39.8353 138.627 39.2797L139.313 39.2833L140.48 39.4164C140.48 39.3402 140.531 39.2897 140.608 39.2901C140.607 39.4678 140.682 39.5444 140.835 39.5452C140.987 39.546 141.064 39.4702 141.065 39.2925L141.065 39.1909L140.712 38.7067C140.661 38.7064 140.56 38.7566 140.381 38.8319C140.255 38.755 140.077 38.7033 139.9 38.7024L138.732 38.6963C138.555 38.543 138.403 38.466 138.276 38.4654L138.276 38.3638C138.454 38.3647 138.607 38.3148 138.734 38.2393L138.962 38.3674C139.191 38.2416 139.319 38.1154 139.319 38.0138C139.32 37.8869 139.244 37.8103 139.092 37.7841L138.965 37.7834L136.297 38.2265L135.713 38.0965C135.179 38.2714 134.722 38.3452 134.29 38.3429L133.961 38.0873L133.834 38.0866L131.494 38.9123L131.367 38.9116L131.139 38.7835C132.171 35.6658 132.766 33.6376 132.923 32.7244C132.926 32.0896 134.454 31.3359 137.506 30.4124C139.97 30.0444 141.267 29.7465 141.344 29.493C141.345 29.3407 141.244 29.264 141.015 29.2628C141.627 28.9359 141.933 28.6836 141.933 28.5567C143.179 28.3347 143.814 28.1349 143.815 27.9825L143.816 27.754C143.26 27.421 142.957 27.0893 142.882 26.8096L142.78 26.8091C141.941 27.1348 140.67 27.4328 139.018 27.7289C138.842 27.3471 138.64 27.1429 138.437 27.1418C138.361 27.1414 138.335 27.1921 138.334 27.2683C136.402 27.7406 135.309 28.0903 135.054 28.2921C134.927 28.2153 134.775 28.1637 134.597 28.1628L134.013 28.1597L134.016 27.7027C134.248 26.9168 134.352 26.4603 134.353 26.308C134.357 25.6478 136.848 25.0769 141.852 24.5952L142.08 24.698C142.741 24.5745 143.631 24.4522 144.774 24.382L144.775 24.1281C144.141 23.9978 143.456 23.8673 142.669 23.787C142.671 23.4315 143.637 23.1319 145.594 22.8629C145.721 22.9397 145.873 22.9659 146.05 22.9668L146.177 22.9675C146.534 22.6647 146.815 22.5138 146.992 22.5147L147.576 22.6447L147.933 22.2911L147.934 22.1642C147.934 22.0372 147.782 21.9348 147.478 21.8063C147.326 21.8055 147.25 21.8813 147.223 22.0589L146.538 21.9283C146.366 20.988 145.835 20.5281 144.895 20.5232C144.894 20.7771 144.157 20.9764 142.683 21.0956C142.684 21.0195 142.633 20.9684 142.557 20.968C142.43 21.0435 142.277 21.0935 142.099 21.0926L141.871 21.0914L141.289 20.7329C137.958 21.5787 135.975 22 135.315 21.9965L135.087 21.9953L135.09 21.4113L134.964 21.1568L134.379 21.2807C134.051 21.0504 133.772 20.922 133.569 20.921L133.569 20.8194L134.291 18.8173ZM144.889 21.7927L145.143 21.7941L145.726 21.9241L145.725 22.051C145.446 22.0496 145.166 22.0735 144.887 22.1482L144.889 21.7927ZM130.039 25.8029C130.04 25.676 130.117 25.6002 130.269 25.5756L130.624 25.5775C130.624 25.679 130.471 25.8052 130.166 25.9306L130.039 25.9299L130.039 25.8029ZM140.896 27.8657L141.124 27.8669L141.352 27.9696C141.352 28.122 141.275 28.1977 141.123 28.1969C140.996 28.1963 140.92 28.1197 140.895 27.9672L140.896 27.8657ZM138.328 28.5378C138.328 28.4108 138.761 28.3369 139.599 28.3159L139.725 28.3166L139.725 28.4435C138.886 28.6677 138.301 28.8931 137.969 29.1199L137.842 29.1192L138.328 28.5378ZM133.879 29.5809C133.88 29.454 134.337 29.304 135.278 29.1058L135.277 29.3343C134.794 29.408 134.413 29.5075 134.107 29.6837L133.879 29.5809ZM131.978 33.7605C131.979 33.5827 131.954 33.4303 131.879 33.3029C132.085 32.7708 132.239 32.4923 132.34 32.4928L132.568 32.5956C132.338 32.9244 132.234 33.3302 132.232 33.7618L131.978 33.7605ZM131.873 34.4709L132.101 34.4721L132.101 34.5736L131.872 34.5724L131.873 34.4709ZM129.882 36.4409L129.984 36.4415L129.982 36.7969L129.88 36.7964L129.882 36.4409ZM129.878 37.1519L129.749 37.6082L129.521 37.4801C129.598 37.3535 129.624 37.2267 129.624 37.1505L129.878 37.1519ZM131.147 37.2601L131.147 37.387C131.093 37.9199 130.965 38.1986 130.787 38.1976L130.789 37.8422C130.967 37.6654 131.045 37.488 131.046 37.2595L131.147 37.2601ZM128.929 39.1274C129.314 38.1899 129.545 37.7341 129.621 37.7345L129.62 37.963C129.514 38.8004 129.36 39.2312 129.156 39.2301L128.928 39.2289L128.929 39.1274ZM137.107 38.5862L137.464 38.3596L137.565 38.3601C137.718 38.3609 137.794 38.4375 137.793 38.5898C137.107 38.6878 136.624 38.7614 136.395 38.811L136.396 38.5825C136.574 38.5834 136.752 38.5336 136.879 38.4581C136.879 38.5342 136.904 38.5851 136.98 38.5855L137.107 38.5862ZM130.557 38.425L130.786 38.4262L130.682 38.908L130.555 38.9074L130.557 38.425ZM133.117 39.3778C133.118 39.2001 134.007 38.9762 135.812 38.681L135.937 38.9356C135.81 38.9349 134.87 39.1331 133.116 39.5048L133.117 39.3778ZM135.575 40.3302L136.286 40.3339L136.285 40.4354C136.107 40.4345 135.828 40.4838 135.446 40.558L135.575 40.3302ZM134.176 40.7799C134.455 40.7813 134.684 40.7064 134.863 40.555L135.218 40.5568C135.217 40.7092 134.988 40.8349 134.531 40.9087L134.175 40.9068L134.176 40.7799ZM127.379 44.1467L127.506 44.1473L127.505 44.3759L127.378 44.3752L127.379 44.1467ZM126.205 45.1816L126.076 45.6379L125.848 45.5352C125.925 45.3578 125.976 45.2565 125.977 45.1804L126.205 45.1816ZM124.808 45.3012L124.323 45.7557C124.271 46.1363 124.066 46.4399 123.735 46.6921L123.733 47.0476L123.858 47.2767C124.239 47.2787 124.598 46.6966 124.909 45.5302L124.808 45.3012ZM125.745 45.7631L125.974 45.7643C125.973 45.9167 125.896 45.9925 125.744 45.9917L125.745 45.7631ZM146.694 16.4955C146.696 16.0638 146.545 15.8091 146.241 15.6806L145.884 15.9072C145.471 17.3016 145.162 18.0109 144.934 18.0097L143.537 18.0024C140.64 18.5712 139.088 19.0455 138.858 19.3744C138.782 19.374 138.731 19.3484 138.732 19.2722C138.529 19.2711 137.994 19.4715 137.104 19.8477L136.394 19.59C136.063 19.7153 135.834 19.9172 135.706 20.1704L135.704 20.4243L136.057 20.8832L136.642 20.7593C136.794 20.7601 136.87 20.8367 136.869 21.0144C136.233 21.2396 135.928 21.4157 135.927 21.5935L135.924 22.0505C135.923 22.2028 135.999 22.2794 136.152 22.2802L136.279 22.2809C136.813 22.1313 137.143 22.0569 137.219 22.0573C137.372 22.0581 137.752 22.1362 138.386 22.2919C137.826 22.5937 137.545 22.7953 137.545 22.8715C137.696 23.05 137.823 23.1776 137.898 23.2796C137.974 23.3816 138.024 23.4326 138.024 23.458L143.158 22.5454C143.488 22.6741 143.639 22.7764 143.639 22.9034C143.638 22.9796 143.587 23.0301 143.511 23.0297C143.2 24.323 142.967 25.0581 142.789 25.2349L141.851 29.8004C141.844 31.1207 141.61 32.1351 141.124 32.8181C140.256 33.753 139.82 34.4363 139.818 34.9187C139.817 35.0711 139.893 35.1476 140.071 35.1486L140.172 35.1491L140.656 34.7961L140.655 35.1516C140.368 36.572 140.084 37.4338 139.803 37.7116C139.802 37.8894 139.852 38.0674 139.928 38.1947L139.465 39.2333C139.464 39.4618 139.616 39.5896 139.92 39.5912C139.917 40.3275 139.787 40.8346 139.557 41.1127L139.683 41.3419L139.322 42.3811L139.321 42.508L139.448 42.5087C139.727 42.5101 139.907 42.0794 140.039 41.2168L140.496 41.2192C140.264 41.7766 140.136 42.1314 140.135 42.2838C140.134 42.4615 140.184 42.6141 140.259 42.7414C139.924 43.7299 139.768 44.3893 139.767 44.7194C139.303 46.0119 138.688 47.1005 137.896 47.985C137.896 48.0612 137.921 48.1121 137.997 48.1125C137.815 48.9494 137.66 49.4564 137.532 49.6335L137.531 49.7351L137.758 50.0917L138.242 49.7388C138.374 48.7746 138.555 48.2678 138.834 48.2184L139.289 48.5763L138.321 54.1826L138.316 54.9951C138.315 55.1475 138.391 55.224 138.544 55.2248C138.874 55.2265 139.109 53.9582 139.275 51.3946C139.782 51.3973 140.145 50.1042 140.336 47.5407L140.235 47.3117L140.337 47.3122C140.573 45.8154 141.009 45.0813 141.644 45.0847C142.338 43.4633 143.45 39.5081 144.981 33.1938L144.856 32.9646C145.346 31.4691 145.658 30.125 145.816 28.9832L146.871 26.1958C146.795 26.1954 146.77 26.1444 146.771 26.0683L147 25.841C147.008 24.3429 147.396 22.9231 148.191 21.5307L149.587 21.538C149.74 21.5388 149.816 21.4631 149.817 21.3107C149.818 21.133 149.59 21.0048 149.133 20.9517L148.904 21.0774L148.905 20.8235C151.066 20.3778 152.641 20.1575 153.581 20.1624L153.911 20.1642C154.444 20.167 155.104 20.1958 155.916 20.2762C155.917 20.0731 156.223 19.9732 156.832 19.951C157.01 19.9519 157.543 20.0308 158.481 20.1881C158.71 20.1893 158.863 19.987 158.941 19.6065C158.713 19.4784 158.587 19.3508 158.588 19.2492L158.588 19.1222C158.69 19.1228 158.817 19.0981 158.944 19.0225C158.944 19.0987 158.995 19.1244 159.071 19.1248L159.172 19.1253L159.529 18.8987L160.595 18.9042L160.824 18.8039L160.824 18.9054C161.358 18.7305 162.019 18.6324 162.806 18.5603C162.933 18.6372 163.136 18.689 163.39 18.6903L163.847 18.6927L163.97 19.2774L164.199 19.2786C164.53 19.1026 164.683 18.951 164.684 18.8241L164.685 18.5702C164.559 18.341 164.458 18.2389 164.331 18.2382L163.747 18.2352C163.519 18.234 163.164 18.1813 162.682 18.1026C162.504 18.1779 162.402 18.2281 162.351 18.2279L161.869 18.0984C161.107 18.1706 160.396 18.2684 159.76 18.4428L159.761 18.2143C161.794 17.8441 162.812 17.4178 162.815 16.9354L162.815 16.8084C162.69 16.5792 162.589 16.4771 162.462 16.4765L162.233 16.4753C162.231 16.8307 161.773 17.133 160.832 17.382L160.832 17.2805C160.121 17.4291 159.612 17.5026 159.308 17.501L158.724 17.371L158.596 17.6242C157.479 17.6438 156.489 17.664 155.6 17.6847C154.863 17.7062 154.254 17.703 153.822 17.7008C153.695 17.7001 153.62 17.5474 153.596 17.2426L153.597 17.1156C152.351 17.49 150.852 17.6852 149.15 17.6763L148.921 17.8021L148.922 17.6751C148.77 17.6743 148.49 17.749 148.083 17.8993C148.083 17.8231 148.007 17.7973 147.855 17.7965L147.857 17.441C148.139 16.9601 148.318 16.7325 148.444 16.7332C148.448 16.1492 148.297 15.7929 147.993 15.6898C147.662 15.815 147.329 16.3719 147.045 17.3098L146.588 17.3074L146.694 16.4955ZM158.49 18.5377C158.491 18.4108 158.567 18.335 158.72 18.3104L158.847 18.3111C158.999 18.3119 159.075 18.3885 159.074 18.5408L158.49 18.5377ZM153.333 19.0947L153.688 19.0966L153.687 19.2235L153.332 19.2217L153.333 19.0947ZM154.754 19.2291L154.626 19.457C154.499 19.4563 154.423 19.3797 154.398 19.2273L154.754 19.2291ZM154.982 19.2303L155.338 19.2322C155.337 19.3845 155.26 19.4603 155.083 19.4594L154.981 19.4588L154.982 19.2303ZM156.733 19.468C156.734 19.3411 156.81 19.2653 156.963 19.2407L156.962 19.4692L156.733 19.468ZM157.318 19.2426L158.131 19.2468L158.13 19.3738C157.851 19.3723 157.597 19.3964 157.317 19.4711L157.318 19.2426ZM155.667 19.3609L156.023 19.3627L156.022 19.4643L155.667 19.4624L155.667 19.3609ZM140.152 19.5081C140.203 19.5084 140.305 19.4582 140.483 19.3829L140.61 19.3836L140.609 19.6121L140.152 19.6097L140.152 19.5081ZM143.936 29.2273L144.291 29.2292L144.289 29.5592C144.288 29.737 144.212 29.8127 144.06 29.8119L143.933 29.8113L143.936 29.2273ZM143.599 30.4951C143.6 30.3681 143.676 30.2924 143.829 30.2678L144.057 30.269C144.056 30.3959 143.979 30.5986 143.826 30.8518C143.699 30.8511 143.623 30.7745 143.598 30.622L143.599 30.4951ZM143.824 31.0803L143.822 31.5627C143.821 31.715 143.744 31.7908 143.592 31.79L143.465 31.7893C143.466 31.7132 143.415 31.6113 143.34 31.4332C143.518 31.4341 143.595 31.3076 143.596 31.0791L143.824 31.0803ZM141.458 36.9078L141.813 36.9097C141.811 37.4429 141.656 37.9499 141.323 38.4305C141.322 38.6083 141.372 38.7609 141.448 38.8882L141.446 39.2437C141.109 40.4099 140.751 40.992 140.37 40.99L140.142 40.9889L140.142 40.8873L141.458 36.9078ZM140.743 37.615C140.743 37.6912 140.717 37.7164 140.641 37.716C140.641 37.8176 140.665 37.9447 140.741 38.072L140.635 38.884L140.28 38.8821C140.28 38.7044 140.231 38.5518 140.155 38.4244C140.257 38.425 140.334 38.1461 140.388 37.6131L140.743 37.615ZM139.447 42.7372C139.218 42.736 139.013 43.1158 138.857 43.9021L139.187 43.9038L139.548 42.7377L139.447 42.7372ZM138.599 44.6117L138.598 44.8402L138.725 44.8409L138.726 44.6123L138.599 44.6117ZM138.495 45.0682L138.368 45.0675C138.367 45.3468 138.058 46.1577 137.416 47.5255L136.591 49.8571L136.589 50.2126L136.818 50.2138C136.82 49.7313 136.898 49.5032 137.075 49.5042C137.691 48.2378 138.207 46.844 138.596 45.2972L138.495 45.0682Z" fill="white"/>
<path d="M49.6097 62.1139C48.8297 62.1098 48.0804 61.9809 47.3617 61.7271C46.653 61.4734 46.1048 61.1406 45.7169 60.7285L46.1564 59.8758C46.5344 60.2578 47.0378 60.5704 47.6665 60.8137C48.2953 61.047 48.9447 61.1654 49.6147 61.1689C50.5547 61.1739 51.2605 61.0075 51.7323 60.67C52.2041 60.3225 52.4415 59.8737 52.4444 59.3237C52.4466 58.9037 52.3183 58.5681 52.0596 58.3167C51.8109 58.0654 51.5019 57.8738 51.1326 57.7418C50.7634 57.5999 50.2492 57.4472 49.59 57.2837C48.8011 57.0796 48.1721 56.8863 47.703 56.7039C47.234 56.5114 46.8305 56.2243 46.4925 55.8425C46.1645 55.4608 46.0022 54.9449 46.0056 54.2949C46.0084 53.7649 46.1509 53.2857 46.4331 52.8572C46.7154 52.4186 47.1473 52.0709 47.7286 51.8139C48.31 51.557 49.0306 51.4307 49.8906 51.4352C50.4906 51.4384 51.0752 51.5264 51.6443 51.6994C52.2234 51.8625 52.7222 52.0901 53.1407 52.3823L52.7611 53.2653C52.3226 52.973 51.8537 52.7555 51.3545 52.6129C50.8553 52.4603 50.3657 52.3827 49.8857 52.3802C48.9657 52.3754 48.2698 52.5518 47.7979 52.9093C47.3361 53.2569 47.1037 53.7107 47.1007 54.2707C47.0985 54.6907 47.2218 55.0313 47.4704 55.2926C47.7291 55.544 48.0481 55.7407 48.4273 55.8826C48.8166 56.0147 49.3359 56.1624 49.985 56.3258C50.754 56.5198 51.373 56.7131 51.842 56.9055C52.3211 57.088 52.7246 57.3702 53.0526 57.7519C53.3807 58.1236 53.543 58.6295 53.5397 59.2695C53.5369 59.7994 53.3894 60.2837 53.0971 60.7222C52.8148 61.1507 52.378 61.4934 51.7866 61.7503C51.1953 61.9972 50.4697 62.1184 49.6097 62.1139ZM58.9432 62.1478C58.1832 62.1438 57.4991 61.9702 56.8909 61.627C56.2827 61.2738 55.8052 60.7913 55.4584 60.1795C55.1116 59.5677 54.9403 58.8768 54.9443 58.1068C54.9483 57.3368 55.1269 56.6477 55.4801 56.0396C55.8333 55.4314 56.3158 54.9589 56.9276 54.6221C57.5393 54.2853 58.2252 54.1189 58.9852 54.1229C59.7452 54.1269 60.4293 54.3005 61.0375 54.6437C61.6457 54.9868 62.1182 55.4643 62.455 56.0761C62.8018 56.6879 62.9732 57.3788 62.9692 58.1488C62.9651 58.9188 62.7865 59.6079 62.4333 60.216C62.0902 60.8242 61.6126 61.3018 61.0008 61.6486C60.3891 61.9854 59.7032 62.1518 58.9432 62.1478ZM58.9481 61.2028C59.5081 61.2057 60.0088 61.0834 60.4501 60.8357C60.9014 60.578 61.2533 60.2149 61.5058 59.7462C61.7582 59.2775 61.886 58.7432 61.8892 58.1432C61.8923 57.5432 61.7701 57.0075 61.5226 56.5362C61.2751 56.0649 60.927 55.7031 60.4783 55.4507C60.0396 55.1884 59.5403 55.0558 58.9803 55.0529C58.4203 55.05 57.9147 55.1773 57.4633 55.4349C57.022 55.6826 56.6701 56.0408 56.4077 56.5094C56.1552 56.9781 56.0274 57.5125 56.0243 58.1125C56.0211 58.7124 56.1433 59.2481 56.3909 59.7194C56.6484 60.1907 56.9965 60.5576 57.4351 60.8199C57.8838 61.0722 58.3881 61.1999 58.9481 61.2028ZM67.8804 54.1695C68.9104 54.1749 69.699 54.439 70.2463 54.9619C70.7936 55.4747 71.0647 56.2362 71.0594 57.2462L71.0338 62.1361L70.0138 62.1308L70.0202 60.9008C69.7781 61.3095 69.4214 61.6276 68.9502 61.8552C68.489 62.0828 67.9384 62.1949 67.2984 62.1915C66.4184 62.1869 65.7195 61.9733 65.2017 61.5506C64.684 61.1278 64.4269 60.5715 64.4305 59.8815C64.434 59.2115 64.6768 58.6728 65.1589 58.2653C65.6511 57.8579 66.4272 57.6569 67.4871 57.6625L69.9921 57.6756L69.9946 57.1956C69.9982 56.5156 69.8109 55.9996 69.4327 55.6476C69.0546 55.2856 68.5006 55.1027 67.7706 55.0989C67.2706 55.0963 66.7901 55.1788 66.3292 55.3464C65.8684 55.504 65.4722 55.7269 65.1407 56.0152L64.6649 55.2177C65.0667 54.8798 65.548 54.6223 66.109 54.4452C66.6699 54.2581 67.2604 54.1662 67.8804 54.1695ZM67.4678 61.3524C68.0678 61.3556 68.5835 61.2233 69.0149 60.9555C69.4464 60.6778 69.7685 60.2794 69.9812 59.7606L69.9879 58.4706L67.513 58.4576C66.163 58.4505 65.4855 58.917 65.4806 59.857C65.4782 60.317 65.6513 60.6829 65.9999 60.9547C66.3485 61.2166 66.8378 61.3491 67.4678 61.3524ZM78.0329 54.2226C78.7729 54.2265 79.442 54.4 80.0403 54.7432C80.6385 55.0763 81.106 55.5487 81.4428 56.1605C81.7797 56.7723 81.946 57.4682 81.9419 58.2482C81.9378 59.0381 81.7641 59.7372 81.4209 60.3455C81.0777 60.9537 80.6053 61.4262 80.0035 61.7631C79.4118 62.09 78.7409 62.2515 77.9909 62.2475C77.3509 62.2442 76.7716 62.1111 76.253 61.8484C75.7444 61.5758 75.3265 61.1836 74.9991 60.6718L74.9761 65.0668L73.9111 65.0612L73.9677 54.2613L74.9877 54.2667L74.9795 55.8267C75.3022 55.3084 75.7243 54.9106 76.2458 54.6333C76.7772 54.3561 77.373 54.2192 78.0329 54.2226ZM77.9209 61.3021C78.4709 61.305 78.9715 61.1826 79.4228 60.935C79.8742 60.6774 80.2261 60.3142 80.4785 59.8455C80.741 59.3769 80.8738 58.8426 80.8769 58.2426C80.8801 57.6426 80.7529 57.1119 80.4953 56.6506C80.2477 56.1793 79.8997 55.8124 79.451 55.5501C79.0024 55.2877 78.5031 55.1551 77.9531 55.1522C77.3931 55.1493 76.8874 55.2766 76.4361 55.5343C75.9947 55.792 75.6428 56.1551 75.3803 56.6238C75.1279 57.0825 75.0002 57.6118 74.997 58.2118C74.9939 58.8118 75.1161 59.3474 75.3636 59.8187C75.6211 60.2901 75.9692 60.6569 76.4079 60.9192C76.8565 61.1716 77.3609 61.2992 77.9209 61.3021ZM92.8024 62.3401C91.7625 62.3346 90.8237 62.0997 89.9861 61.6353C89.1585 61.171 88.5069 60.5326 88.0311 59.7201C87.5654 58.8976 87.3352 57.9814 87.3405 56.9714C87.3458 55.9614 87.5855 55.0527 88.0598 54.2451C88.5441 53.4277 89.2074 52.7911 90.0498 52.3355C90.8922 51.8799 91.8334 51.6549 92.8734 51.6603C93.6534 51.6644 94.3727 51.7982 95.0313 52.0616C95.6899 52.3251 96.2479 52.708 96.7053 53.2104L95.9966 53.9117C95.181 53.0774 94.1482 52.657 92.8982 52.6504C92.0682 52.6461 91.3122 52.8321 90.6302 53.2086C89.9482 53.585 89.4105 54.1022 89.0171 54.7602C88.6336 55.4182 88.4398 56.1571 88.4355 56.9771C88.4312 57.7971 88.6173 58.5381 88.9938 59.2001C89.3804 59.8621 89.9126 60.3849 90.5906 60.7685C91.2686 61.152 92.0226 61.346 92.8526 61.3503C94.1126 61.3569 95.1498 60.9423 95.9642 60.1066L96.6655 60.8153C96.2029 61.3129 95.6359 61.6949 94.9645 61.9614C94.3031 62.2179 93.5824 62.3442 92.8024 62.3401ZM101.672 62.3715C100.912 62.3675 100.228 62.194 99.6198 61.8508C99.0116 61.4976 98.5341 61.0151 98.1873 60.4032C97.8405 59.7914 97.6692 59.1005 97.6732 58.3305C97.6772 57.5605 97.8558 56.8715 98.209 56.2633C98.5622 55.6551 99.0447 55.1827 99.6565 54.8459C100.268 54.5091 100.954 54.3426 101.714 54.3466C102.474 54.3506 103.158 54.5242 103.766 54.8674C104.375 55.2106 104.847 55.6881 105.184 56.2998C105.531 56.9116 105.702 57.6026 105.698 58.3725C105.694 59.1425 105.515 59.8316 105.162 60.4398C104.819 61.048 104.342 61.5255 103.73 61.8723C103.118 62.2091 102.432 62.3755 101.672 62.3715ZM101.677 61.4265C102.237 61.4295 102.738 61.3071 103.179 61.0594C103.63 60.8018 103.982 60.4386 104.235 59.9699C104.487 59.5012 104.615 58.9669 104.618 58.3669C104.621 57.7669 104.499 57.2313 104.252 56.7599C104.004 56.2886 103.656 55.9268 103.207 55.6745C102.769 55.4122 102.269 55.2795 101.709 55.2766C101.149 55.2737 100.644 55.401 100.192 55.6587C99.7509 55.9064 99.399 56.2645 99.1366 56.7332C98.8841 57.2019 98.7563 57.7362 98.7532 58.3362C98.75 58.9362 98.8722 59.4718 99.1198 59.9431C99.3773 60.4145 99.7254 60.7813 100.164 61.0436C100.613 61.296 101.117 61.4236 101.677 61.4265ZM107.737 62.4033C107.517 62.4021 107.327 62.3211 107.168 62.1603C107.019 61.9995 106.945 61.8041 106.946 61.5741C106.947 61.3441 107.023 61.1545 107.174 61.0053C107.335 60.8461 107.525 60.7671 107.745 60.7683C107.965 60.7694 108.155 60.8504 108.314 61.0113C108.473 61.1621 108.552 61.3525 108.551 61.5825C108.55 61.8125 108.469 62.0071 108.308 62.1663C108.147 62.3254 107.957 62.4044 107.737 62.4033Z" fill="white"/>
</svg>
